<?xml version="1.0" standalone="no"?>
<!DOCTYPE svg PUBLIC "-//W3C//DTD SVG 1.1//EN" "http://www.w3.org/Graphics/SVG/1.1/DTD/svg11.dtd" >
<svg>
<metadata>
Created by FontForge 20090914 at Fri Mar 14 08:53:40 2014
 By www-data
Copyright (C) 1993; Type Market Ltd. Moscow, 119136, Box 20; phone:(095)1427712; Created by A.Kustov
</metadata>
<defs>
<font id="Micra" horiz-adv-x="929" >
  <font-face 
    font-family="Micra"
    font-weight="400"
    font-stretch="normal"
    units-per-em="1000"
    panose-1="0 0 0 0 0 0 0 0 0 0"
    ascent="800"
    descent="-200"
    x-height="683"
    cap-height="684"
    bbox="-19 -165 1414 863"
    underline-thickness="50"
    underline-position="-75"
    unicode-range="U+0020-U+2122"
  />
<missing-glyph horiz-adv-x="863" 
d="M53 0v863h757v-863h-757zM757 53v757h-651v-757h651z" />
    <glyph glyph-name=".notdef" horiz-adv-x="863" 
d="M53 0v863h757v-863h-757zM757 53v757h-651v-757h651z" />
    <glyph glyph-name="space" unicode=" " horiz-adv-x="494" 
 />
    <glyph glyph-name="exclam" unicode="!" horiz-adv-x="145" 
d="M24 189v505h92v-505h-92zM126 0h-111h111zM15 121h111v-121h-111v121z" />
    <glyph glyph-name="quotedbl" unicode="&#x22;" horiz-adv-x="338" 
d="M200 687h54l-11 -167h-32zM70 687h54l-10 -167h-33z" />
    <glyph glyph-name="numbersign" unicode="#" horiz-adv-x="520" 
d="M336 233h130l3 40h-126l15 113h129l6 42h-129l26 184h-44l-24 -184h-119l26 184h-42l-26 -184h-125l-8 -42h127l-14 -113h-127l-6 -40h125l-29 -201h43l30 201h119l-29 -201h40zM316 386l-16 -113h-118l15 113h119z" />
    <glyph glyph-name="dollar" unicode="$" horiz-adv-x="896" 
d="M478 602v-219.001c117.333 0 200.333 -13.333 249 -40c52.667 -29.333 79 -81.333 79 -156c0 -82 -29.333 -137 -88 -165c-44.667 -21.333 -124.667 -32 -240 -32v-83h-102v83c-136.667 0 -223.667 12 -261 36c-44 28.667 -66 96 -66 202h102
c0 -80.667 25 -126.667 75 -138c23.333 -5.33301 73.333 -8 150 -8v209c-129.333 0 -218.333 19 -267 57c-40 31.333 -60 83 -60 155c0 83.333 28.333 138 85 164c41.333 18.667 122 28 242 28v83h102v-83c114 0 191.333 -12.333 232 -37
c51.333 -31.333 77 -94.666 77 -189.999h-102c0 59.333 -13 96.5 -39 111.5s-82 22.5 -168 22.5zM151 491.999c0 -38 16.5 -65.667 49.5 -83s91.5 -26 175.5 -26v219c-94 0 -155 -6.83301 -183 -20.5s-42 -43.5 -42 -89.5zM478 290.999v-208.999
c90 0 150.167 7.66699 180.5 23s45.5 42.666 45.5 81.999c0 38 -14.667 64.333 -44 79c-33.333 16.667 -94 25 -182 25z" />
    <glyph glyph-name="percent" unicode="%" horiz-adv-x="855" 
d="M5 102l761 508v-106l-761 -504v102zM16 451c0 60.667 9.33301 99.332 28 115.999s62.667 25 132 25c68.667 0 112.5 -8.5 131.5 -25.5s28.5 -55.5 28.5 -115.5s-9.5 -98.5 -28.5 -115.5s-62.833 -25.5 -131.5 -25.5c-69.333 0 -113.333 8.33301 -132 25
s-28 55.334 -28 116.001zM176 388.998c30.667 0 50.332 5.16699 58.999 15.5s13 25.833 13 46.5c0 25.333 -6.16699 42.166 -18.5 50.499s-30.166 12.5 -53.499 12.5c-24.667 0 -42 -3.33301 -52 -10c-14 -9.33301 -21 -27 -21 -53c0 -25.333 7 -42.666 21 -51.999
c10 -6.66699 27.333 -10 52 -10zM431.998 154.998c0 60.667 9.33301 99.333 28 116s62.667 25 132 25c68.667 0 112.5 -8.5 131.5 -25.5s28.5 -55.5 28.5 -115.5s-9.5 -98.333 -28.5 -115s-62.833 -25 -131.5 -25c-69.333 0 -113.333 8.33301 -132 25s-28 55 -28 115z
M591.998 92.9971c30.667 0 50.332 5.16699 58.999 15.5s13 25.833 13 46.5c0 25.333 -6.16699 42.166 -18.5 50.499s-30.166 12.5 -53.499 12.5c-24.667 0 -42 -3.33301 -52 -10c-14 -9.33301 -21 -27 -21 -53c0 -25.333 7 -42.666 21 -51.999
c10 -6.66699 27.333 -10 52 -10z" />
    <glyph glyph-name="ampersand" unicode="&#x26;" horiz-adv-x="1173" 
d="M918 37c-21.333 -32 -145.666 -48.0029 -372.999 -48.0029c-192 0 -314.333 14.667 -367 44c-43.333 24 -65 79 -65 165c0 72 9.66699 122.667 29 152s54.333 48 105 56c-14 12 -23 27 -27 45s-6 39.667 -6 65v16c0 64.667 32.667 109 98 133
c50 18.667 130.333 28 241 28c106.667 0 187.667 -10 243 -30c64.667 -23.333 97 -59.666 97 -108.999v-85h-101v64c0 23.333 -21.833 40.333 -65.5 51s-101.834 16 -174.501 16c-80 0 -136.333 -3.66699 -169 -11c-44.667 -10 -67 -28.667 -67 -56
c-0.666992 -12.667 -1 -22.667 -1 -30c0 -15.333 2 -28.5 6 -39.5s12 -19.833 24 -26.5l512 -270c9.33301 8.66699 14.5 25.5 15.5 50.5s1.5 53.833 1.5 86.5h102v-24c0 -37.333 -0.833008 -69.166 -2.5 -95.499s-5.16699 -50.166 -10.5 -71.499l104 -53v-95zM363 316.997
c-25.333 12.667 -46.001 19.002 -62.001 19.002c-33.333 0 -56.166 -9.33301 -68.499 -28s-18.5 -55.334 -18.5 -110.001c0 -46 17 -76 51 -90c43.333 -18 136.666 -27 279.999 -27h63h47c30.667 0 61.834 0.166992 93.501 0.5s59.167 2.16602 82.5 5.49902z" />
    <glyph glyph-name="quotesingle" unicode="'" horiz-adv-x="188" 
d="M70 687h54l-10 -167h-33z" />
    <glyph glyph-name="parenleft" unicode="(" horiz-adv-x="240" 
d="M111 128v428.001c0 39.333 9.33301 72.166 28 98.499s41.667 39.5 69 39.5v71c-60 0 -108.167 -19.667 -144.5 -59s-54.5 -89.333 -54.5 -150v-428c0 -60.667 18 -110.667 54 -150s84.333 -59 145 -59v71c-27.333 0 -50.333 13 -69 39s-28 59 -28 99z" />
    <glyph glyph-name="parenright" unicode=")" horiz-adv-x="240" 
d="M106 128v428c0 40 -9.33301 73 -28 99s-41.667 39 -69 39v71c59.333 0 107.333 -19.667 144 -59s55 -89.333 55 -150v-428c0 -60.667 -18.167 -110.667 -54.5 -150s-84.5 -59 -144.5 -59v71c27.333 0 50.333 13 69 39s28 59 28 99z" />
    <glyph glyph-name="asterisk" unicode="*" horiz-adv-x="348" 
d="M182 532c10.667 -2.66699 19.3359 -4.66211 26.0029 -5.99512c20.667 -4.66699 38.667 -8.33398 54 -11.001s26 -7.66699 32 -15s9 -15.666 9 -24.999c0 -8.66699 -3 -16.667 -9 -24s-13.333 -11 -22 -11c-11.333 0 -23 6.66699 -35 20l-49 52
c-2.66699 2.66699 -6.33398 6.66699 -11.001 12c2.66699 -10.667 4.66699 -19.334 6 -26.001c4.66699 -16.667 11 -36.667 19 -60l2 -17c0 -10.667 -3.5 -19.834 -10.5 -27.501s-15.167 -11.5 -24.5 -11.5c-8 0 -15.5 3.5 -22.5 10.5s-10.5 15.833 -10.5 26.5l4 19
c6.66699 26 13.667 49 21 69c1.33301 4 3.33301 9 6 15l-60 -66c-10.667 -12.667 -22.334 -19 -35.001 -19c-10 0 -18.333 3.66699 -25 11s-10 15 -10 23c0 6.66699 1.33301 12 4 16c6.66699 10 18.334 17 35.001 21l85 24l-85 17c-12.667 2 -22.334 6.33301 -29.001 13
s-10 14 -10 22s3.16699 15.833 9.5 23.5s14.166 11.5 23.499 11.5c11.333 0 23 -6 35 -18c17.333 -18.667 34 -35.667 50 -51c2.66699 -2.66699 6.66699 -6.33398 12 -11.001l-27 84c-2.66699 7.33301 -4 12.333 -4 15c0 11.333 3.66699 20.666 11 27.999s15.333 11 24 11
c8 0 15.5 -3.5 22.5 -10.5s10.5 -15.833 10.5 -26.5c0 -7.33301 -0.666992 -13 -2 -17l-25 -84l56 66c4.66699 5.33301 10.167 9.33301 16.5 12s11.833 4 16.5 4c6 0 12 -2 18 -6c11.333 -7.33301 17 -16.333 17 -27c0 -7.33301 -3 -14.333 -9 -21
s-15.333 -11.334 -28 -14.001z" />
    <glyph glyph-name="plus" unicode="+" horiz-adv-x="468" 
d="M52 316h140v140h64v-140h142v-64h-142v-141h-64v141h-140v64z" />
    <glyph glyph-name="comma" unicode="," horiz-adv-x="199" 
d="M45 115h110.999v-187c0 -16.667 -7.33301 -31.667 -22 -45s-31 -20 -49 -20c-11.333 0 -21.833 0.166992 -31.5 0.5s-17.5 2.5 -23.5 6.5v66c36 0 54 8.66699 54 26c0 12 -2.66699 20.333 -8 25s-15.666 7 -30.999 7v121z" />
    <glyph glyph-name="hyphen" unicode="-" horiz-adv-x="481" 
d="M57 391h344v-92h-344v92z" />
    <glyph glyph-name="period" unicode="." horiz-adv-x="170" 
d="M34 116h112v-121h-112v121z" />
    <glyph glyph-name="slash" unicode="/" horiz-adv-x="834" 
d="M706 545l-638 -545v131l638 545v-131z" />
    <glyph glyph-name="zero" unicode="0" horiz-adv-x="927" 
d="M826 341c0 -162.667 -19.667 -261.833 -59 -297.5s-146.333 -53.5 -321 -53.5s-281 17 -319 51c-41.333 36.667 -62 136.667 -62 300s20 263 60 299s147 54 321 54c172.667 0 279.167 -18.167 319.5 -54.5s60.5 -135.833 60.5 -298.5zM725 341.001
c0 128 -12 203.333 -36 226s-105 34 -243 34s-219 -11 -243 -33s-36 -97.667 -36 -227c0 -130 11.333 -205.667 34 -227s104.334 -32 245.001 -32c137.333 0 218.166 11.167 242.499 33.5s36.5 97.5 36.5 225.5z" />
    <glyph glyph-name="one" unicode="1" horiz-adv-x="925" 
d="M496 592h-19l-213 -213l-62 68l237 237h159v-684h-102v592z" />
    <glyph glyph-name="two" unicode="2" horiz-adv-x="926" 
d="M476 341c88.667 0 149.669 7.33301 183.002 22c40 17.333 60 51 60 101c0 63.333 -14.5 102 -43.5 116s-106.167 21 -231.5 21c-132 0 -210.833 -8.5 -236.5 -25.5s-38.5 -68.167 -38.5 -153.5h-102c0 123.333 24.333 200.666 73 231.999
c41.333 26.667 142.666 40 303.999 40c153.333 0 253 -12.667 299 -38c52 -28.667 78 -91 78 -187c0 -95.333 -36.667 -158.666 -110 -189.999c-46.667 -20 -125.667 -30 -237 -30c-120.667 0 -199.334 -5.66699 -236.001 -17c-46 -14 -69 -44.667 -69 -92v-48h652v-92h-754
v141c0 60 18.333 105.333 55 136c31.333 26.667 80.333 44.667 147 54c46.667 6.66699 115.667 10 207 10z" />
    <glyph glyph-name="three" unicode="3" horiz-adv-x="927" 
d="M637 392h-283.001v-92h283c26.667 0 46.834 -7.5 60.501 -22.5s20.5 -34.5 20.5 -58.5c0 -62.667 -13.833 -101.334 -41.5 -116.001s-101.167 -22 -220.5 -22c-133.333 0 -213.5 7.66699 -240.5 23s-40.5 61 -40.5 137h-102c0 -111.333 22.333 -181.166 67 -209.499
s150 -42.5 316 -42.5c148 0 244.333 12.667 289 38c50 28.667 75 90.667 75 186c0 73.333 -22.333 117.333 -67 132c23.333 14 40.333 31 51 51s16 50 16 90c0 87.333 -28 144.666 -84 171.999c-47.333 23.333 -142 35 -284 35c-150 0 -247 -12.667 -291 -38
c-51.333 -30 -77 -96.667 -77 -200h102c0 64 12.333 103.333 37 118c30 18 107.667 27 233 27c102.667 0 172 -6.83301 208 -20.5s54 -44.5 54 -92.5c0 -31.333 -8.66699 -55.666 -26 -72.999c-14.667 -14.667 -33 -22 -55 -22z" />
    <glyph glyph-name="four" unicode="4" horiz-adv-x="925" 
d="M719 684v-461h115v-92h-115v-131h-102v131h-553v167l495 386h160zM617 223v369h-24l-427 -335v-34h451z" />
    <glyph glyph-name="five" unicode="5" horiz-adv-x="925" 
d="M793 592l-615 0.000976562v-175c8.66699 20 35 33.833 79 41.5s106.333 11.5 187 11.5c152 0 251.333 -13.333 298 -40c54 -30.667 81 -97.334 81 -200.001s-27 -169.334 -81 -200.001c-46.667 -26.667 -145.667 -40 -297 -40c-162.667 0 -265.667 12.333 -309 37
c-46.667 26.667 -70 88.667 -70 186h102c0 -59.333 15 -96 45 -110s107.333 -21 232 -21c122 0 198.5 8.5 229.5 25.5s46.5 58.5 46.5 124.5s-14.333 106.833 -43 122.5s-106.667 23.5 -234 23.5c-108.667 0 -178.167 -3.66699 -208.5 -11s-49.5 -24.666 -57.5 -51.999h-102
v369h717v-92z" />
    <glyph glyph-name="six" unicode="6" horiz-adv-x="925" 
d="M180 457l0.000976562 -107.001c14 18 36 31.667 66 41c44.667 14 110.667 21 198 21c159.333 0 258.666 -10.333 297.999 -31c46 -24 69 -83.667 69 -179c0 -92 -22.167 -150.333 -66.5 -175s-144.5 -37 -300.5 -37c-178.667 0 -284.167 16.5 -316.5 49.5
s-48.5 135.167 -48.5 306.5c0 153.333 16.333 247.666 49 282.999c40 43.333 145.333 65 316 65c154 0 253.667 -13.5 299 -40.5s68 -86.5 68 -178.5h-102c0 56.667 -14 91.834 -42 105.501s-102.333 20.5 -223 20.5h-4c-106 0 -175.833 -8.66699 -209.5 -26
s-50.5 -56.666 -50.5 -117.999zM444.001 319.999c-119.333 0 -193.166 -6.66797 -221.499 -20.001s-42.5 -46 -42.5 -98s14.167 -85 42.5 -99s102.166 -21 221.499 -21s193.333 6.83301 222 20.5s43 46.834 43 99.501c0 52 -14.333 84.667 -43 98s-102.667 20 -222 20z" />
    <glyph glyph-name="seven" unicode="7" horiz-adv-x="925" 
d="M212 0l484 567v25h-620v92h722v-141l-454 -543h-132z" />
    <glyph glyph-name="eight" unicode="8" horiz-adv-x="928" 
d="M62 198c0 47.333 5.16797 82.334 15.501 105.001s31.166 41.334 62.499 56.001c-28 18 -45 33 -51 45c-8 15.333 -12 46.666 -12 93.999c0 76 23.333 127 70 153c50.667 28.667 151.667 43 303 43s252.333 -14 303 -42c47.333 -26 71 -77.333 71 -154
c0 -45.333 -4.33301 -76.333 -13 -93c-6 -12 -23 -27.333 -51 -46c30 -14 49.667 -32.167 59 -54.5s14 -57.833 14 -106.5c0 -84.667 -21 -139.667 -63 -165c-48 -28.667 -154.667 -43 -320 -43c-166.667 0 -274 14 -322 42c-44 25.333 -66 80.666 -66 165.999z
M722.001 498.001c0 42.667 -16.667 70.501 -50 83.501s-107.333 19.5 -222 19.5s-188.667 -6.5 -222 -19.5s-50 -41.167 -50 -84.5c0 -46.667 15.167 -75.667 45.5 -87s105.833 -17 226.5 -17s196.167 5.66699 226.5 17s45.5 40.666 45.5 87.999zM731.001 198.002
c0 50.667 -15.833 82.832 -47.5 96.499s-109.5 20.5 -233.5 20.5c-126 0 -205.167 -6.66699 -237.5 -20s-48.5 -45.666 -48.5 -96.999s16 -83.5 48 -96.5s111.333 -19.5 238 -19.5c127.333 0 206 6.33301 236 19s45 45 45 97z" />
    <glyph glyph-name="nine" unicode="9" horiz-adv-x="925" 
d="M709 227l0.000976562 103.999c-14 -18 -36 -31.333 -66 -40c-43.333 -12.667 -109.333 -19 -198 -19c-158.667 0 -257.667 10.333 -297 31c-46 24 -69 83.667 -69 179c0 92 22.167 150.333 66.5 175s144.166 37 299.499 37c179.333 0 285.666 -17 318.999 -51
c31.333 -32 47 -133.667 47 -305c0 -153.333 -16.333 -247.666 -49 -282.999c-40 -43.333 -145.667 -65 -317 -65c-153.333 0 -252.666 13.5 -297.999 40.5s-68 86.5 -68 178.5h101c0 -56.667 14.167 -92 42.5 -106s102.5 -21 222.5 -21h4c106 0 175 8.33301 207 25
c35.333 18.667 53 58.667 53 120zM445.001 363.999c119.333 0 193.167 6.66699 221.5 20s42.5 46 42.5 98c0 52.667 -14 85.667 -42 99s-102 20 -222 20c-119.333 0 -193.333 -6.83301 -222 -20.5s-43 -46.5 -43 -98.5s14.333 -84.667 43 -98s102.667 -20 222 -20z" />
    <glyph glyph-name="colon" unicode=":" horiz-adv-x="206" 
d="M34 684h112v-121h-112v121zM34 116h112v-121h-112v121z" />
    <glyph glyph-name="semicolon" unicode=";" horiz-adv-x="180" 
d="M39 683h111v-121h-111v121zM39 115h111v-187c0 -16.667 -7.33301 -31.667 -22 -45s-30.667 -20 -48 -20c-11.333 0 -22 0.166992 -32 0.5s-18 2.5 -24 6.5v66c36.667 0 55 8.66699 55 26c0 11.333 -2.83301 19.5 -8.5 24.5s-16.167 7.5 -31.5 7.5v121z" />
    <glyph glyph-name="less" unicode="&#x3c;" horiz-adv-x="370" 
d="M31 297l277 188v-76l-164 -112l164 -109v-74z" />
    <glyph glyph-name="equal" unicode="=" horiz-adv-x="569" 
d="M57 481h410v-92h-410v92zM57 299h410v-92h-410v92z" />
    <glyph glyph-name="greater" unicode="&#x3e;" horiz-adv-x="370" 
d="M328 297l-278 -183v74l165 109l-165 112v76z" />
    <glyph glyph-name="question" unicode="?" horiz-adv-x="761" 
d="M380 194l-101.999 -0.000976562v60c0 36 18 64.833 54 86.5s78 32.5 126 32.5c49.333 0 83.5 9.83301 102.5 29.5s28.5 52.5 28.5 98.5c0 46.667 -12.667 76.667 -38 90s-87 20 -185 20s-159.667 -8.16699 -185 -24.5s-38 -56.5 -38 -120.5h-102
c0 100 20.333 164.5 61 193.5s128.667 43.5 264 43.5c127.333 0 213.333 -13.167 258 -39.5s67 -80.5 67 -162.5c0 -70 -14.333 -123.333 -43 -160s-69.334 -55 -122.001 -55c-37.333 0 -71 -6.66699 -101 -20s-45 -28.666 -45 -45.999v-26zM264.001 125.999h121v-126h-121
v126z" />
    <glyph glyph-name="at" unicode="@" horiz-adv-x="652" 
d="M308 514c-32.667 0 -58.832 -11.167 -78.499 -33.5s-29.5 -48.5 -29.5 -78.5c0 -26 8 -48.333 24 -67s38.333 -28 67 -28c33.333 0 59.666 11.333 78.999 34c17.333 20 26 44.667 26 74c0 27.333 -7 50 -21 68c-16 20.667 -38.333 31 -67 31zM318.002 658
c-76.667 0 -137.666 -25.3301 -182.999 -75.9971c-40.667 -45.333 -61 -100.333 -61 -165s20 -119.334 60 -164.001c45.333 -50 106.666 -75 183.999 -75c31.333 0 62.833 5.66699 94.5 17s53.167 24.666 64.5 39.999l22 -27c-12.667 -15.333 -36.667 -29.5 -72 -42.5
s-73 -19.5 -113 -19.5c-86.667 0 -155.667 28 -207 84c-46.667 50.667 -70 112.334 -70 185.001c0 74 23.667 137 71 189c52.667 58 122.667 87 210 87c60 0 113 -15 159 -45c57.333 -37.333 94.333 -93 111 -167c2 -12.667 3.5 -25.334 4.5 -38.001s1.5 -20 1.5 -22
c0 -39.333 -8 -71.666 -24 -96.999c-20.667 -32 -51.667 -48 -93 -48c-28 0 -47.667 11 -59 33c-3.33301 7.33301 -6.33301 18.666 -9 33.999c-6.66699 -14.667 -13.667 -25.667 -21 -33c-23.333 -22.667 -56.333 -34 -99 -34c-39.333 0 -70.166 12.5 -92.499 37.5
s-33.5 54.5 -33.5 88.5c0 37.333 12.667 70.333 38 99c28 32 64.333 48 109 48c38 0 67.667 -12 89 -36l22 -38l12 68h31l-22 -169l-2 -13c0 -14.667 3.33301 -26.834 10 -36.501s17.667 -14.5 33 -14.5c26 0 46 12.333 60 37c12 21.333 18 47.333 18 78
c0 7.33301 -0.833008 16.5 -2.5 27.5s-2.83398 18.5 -3.50098 22.5c-18.667 66.667 -49 115 -91 145c-37.333 26.667 -86 40 -146 40z" />
    <glyph glyph-name="A" unicode="A" horiz-adv-x="949" 
d="M535 684l360 -684h-115l-81 152h-488l-80 -152h-115l360 684h159zM655 243l-186 359h-26l-186 -359h398z" />
    <glyph glyph-name="B" unicode="B" horiz-adv-x="921" 
d="M817 200c0 -67.333 -18.499 -117.5 -55.499 -150.5s-91.167 -49.5 -162.5 -49.5h-549v684h525c70 0 123.667 -16.667 161 -50s56 -81.333 56 -144c0 -68.667 -25.667 -112.667 -77 -132c29.333 -10 52.666 -26.667 69.999 -50c21.333 -28.667 32 -64.667 32 -108z
M691.001 490c0 31.333 -8 55.333 -24 72c-19.333 20 -50 30 -92 30h-423v-194h423c43.333 0 73.5 7.5 90.5 22.5s25.5 38.167 25.5 69.5zM152.001 306l-0.000976562 -214h446c38.667 0 67.834 9.83301 87.501 29.5s29.5 45.5 29.5 77.5c0 31.333 -10 57 -30 77
s-49 30 -87 30h-446z" />
    <glyph glyph-name="C" unicode="C" horiz-adv-x="954" 
d="M165 341c0 -124.667 13.332 -199 39.999 -223s108.334 -36 245.001 -36c127.333 0 205 7 233 21c32.667 16.667 49 61.667 49 135h102c0 -108.667 -22.5 -177.167 -67.5 -205.5s-150.5 -42.5 -316.5 -42.5c-168.667 0 -275.334 20 -320.001 60s-67 137 -67 291
c0 154.667 22.167 252.167 66.5 292.5s151.166 60.5 320.499 60.5c166.667 0 272.334 -14 317.001 -42s67 -96.667 67 -206h-102c0 73.333 -15 117.5 -45 132.5s-109 22.5 -237 22.5c-137.333 0 -219.166 -11.833 -245.499 -35.5s-39.5 -98.5 -39.5 -224.5z" />
    <glyph glyph-name="D" unicode="D" horiz-adv-x="1028" 
d="M65 684h574c84.667 0 142.334 -15.667 173.001 -47c45.333 -46.667 68 -145 68 -295c0 -149.333 -22.667 -247.333 -68 -294c-30.667 -32 -88.334 -48 -173.001 -48h-574v684zM167 92h471c55.333 0 92.5 16.833 111.5 50.5s28.5 100.167 28.5 199.5
c0 98.667 -9.66699 165 -29 199s-56.333 51 -111 51h-471v-500z" />
    <glyph glyph-name="E" unicode="E" horiz-adv-x="840" 
d="M54 684h655v-92h-553v-199h534v-92h-534v-209h553v-92h-655v684z" />
    <glyph glyph-name="F" unicode="F" horiz-adv-x="811" 
d="M149 286v-286h-101v684h635v-92h-534v-214h514v-92h-514z" />
    <glyph glyph-name="G" unicode="G" horiz-adv-x="979" 
d="M142 341c0 -126 13.667 -201.001 41 -225.001s114.333 -36 261 -36c143.333 0 229.833 8.33301 259.5 25s44.5 67.334 44.5 152.001h-330v92h432v-92c0 -118 -24 -192.5 -72 -223.5s-159.333 -46.5 -334 -46.5c-177.333 0 -289 20.333 -335 61s-69 138.667 -69 294
s22.833 252.833 68.5 292.5s157.5 59.5 335.5 59.5c175.333 0 286.833 -13.167 334.5 -39.5s71.5 -90.833 71.5 -193.5h-102c0 66 -16 105.833 -48 119.5s-117.333 20.5 -256 20.5c-148 0 -235.333 -11.667 -262 -35s-40 -98.333 -40 -225z" />
    <glyph glyph-name="H" unicode="H" horiz-adv-x="986" 
d="M68 684h102v-290h589v290h101v-684h-101v302h-589v-302h-102v684z" />
    <glyph glyph-name="I" unicode="I" horiz-adv-x="298" 
d="M184 0h-102v684h102v-684z" />
    <glyph glyph-name="J" unicode="J" horiz-adv-x="811" 
d="M597 684h101v-429c0 -122.667 -21 -198.667 -63 -228c-35.333 -24.667 -125.666 -37 -270.999 -37c-141.333 0 -231.333 14.333 -270 43c-43.333 32 -65 106 -65 222h102c0 -78.667 11.667 -127.167 35 -145.5s89.666 -27.5 198.999 -27.5s175.333 9 198 27
s34 66.667 34 146v429z" />
    <glyph glyph-name="K" unicode="K" horiz-adv-x="953" 
d="M56 683h102v-288h100l442 288h178l-506 -332l519 -351h-173l-450 303h-110v-303h-102v683z" />
    <glyph glyph-name="L" unicode="L" horiz-adv-x="725" 
d="M48 684h101v-592h525v-92h-626v684z" />
    <glyph glyph-name="M" unicode="M" horiz-adv-x="1288" 
d="M258 684l354 -562l354 562h182v-684h-101v592h-20l-383 -592h-64l-383 592h-19v-592h-102v684h182z" />
    <glyph glyph-name="N" unicode="N" horiz-adv-x="1049" 
d="M69 685h149l587 -600v600h102v-685h-154l-582 595v-595h-102v685z" />
    <glyph glyph-name="O" unicode="O" horiz-adv-x="977" 
d="M477 -10c-142 0 -241.33 9.16699 -297.997 27.5s-92.667 53.166 -108 104.499c-10.667 35.333 -16 108.333 -16 219c0 112.667 5 185.667 15 219c15.333 52 51.666 87.333 108.999 106s156.666 28 297.999 28c142 0 241.167 -9.16699 297.5 -27.5
s92.5 -53.5 108.5 -105.5c10.667 -35.333 16 -108.666 16 -219.999c0 -112 -5 -184.667 -15 -218c-15.333 -52 -51.333 -87.167 -108 -105.5s-156.334 -27.5 -299.001 -27.5zM477.003 82c157.333 0 250 11.667 278 35s42 98 42 224c0 126.667 -13.833 201.667 -41.5 225
s-120.5 35 -278.5 35s-250.833 -11.667 -278.5 -35s-41.5 -98.333 -41.5 -225c0 -125.333 14 -199.833 42 -223.5s120.667 -35.5 278 -35.5z" />
    <glyph glyph-name="P" unicode="P" horiz-adv-x="902" 
d="M54 0v684h558c60.667 0 108.167 -18 142.5 -54s51.5 -90.667 51.5 -164s-17.5 -127.833 -52.5 -163.5s-83.5 -53.5 -145.5 -53.5h-452v-249h-102zM156 341l452.001 0.000976562c29.333 0 52.666 10 69.999 30s26 51.667 26 95s-8.5 75.166 -25.5 95.499
s-40.833 30.5 -71.5 30.5h-451v-251z" />
    <glyph glyph-name="Q" unicode="Q" horiz-adv-x="1033" 
d="M894 346c0 -52 -0.831055 -93.501 -2.49805 -124.501s-5.5 -59.167 -11.5 -84.5l77 -50l-50 -75l-71 47c-26 -26.667 -81 -45 -165 -55c-50.667 -6 -117 -9 -199 -9c-142 0 -241.333 9.16699 -298 27.5s-92.667 53.166 -108 104.499c-10.667 35.333 -16 108.333 -16 219
c0 112.667 5 185.667 15 219c15.333 51.333 51.666 86.333 108.999 105s156.666 28 297.999 28c142 0 241.333 -9.16699 298 -27.5s92.667 -53.166 108 -104.499c10.667 -35.333 16 -108.666 16 -219.999zM745.002 120.999l-243.999 161.999l49 75l236 -159
c2 12 3.5 32.333 4.5 61s1.5 57.334 1.5 86.001c0 126.667 -13.833 201.667 -41.5 225s-120.5 35 -278.5 35s-250.833 -11.667 -278.5 -35s-41.5 -98.333 -41.5 -225c0 -125.333 14 -199.833 42 -223.5s120.667 -35.5 278 -35.5c78 0 137.667 2 179 6
s72.666 13.333 93.999 28z" />
    <glyph glyph-name="R" unicode="R" horiz-adv-x="989" 
d="M64 684h614.001c58 0 102.667 -19.833 134 -59.5s47 -92.5 47 -158.5c0 -56.667 -9 -99 -27 -127c-12.667 -20 -33 -36 -61 -48c24.667 -10 44 -23 58 -39c20 -22.667 30 -50.667 30 -84v-168h-101v168c0 22.667 -10.833 41.5 -32.5 56.5s-47.834 22.5 -78.501 22.5h-481
v-247h-102v684zM166.001 340h471.001c37.333 0 64.666 6.33301 81.999 19c26 19.333 39 55 39 107s-12.667 87.333 -38 106c-18 13.333 -45.667 20 -83 20h-471v-252z" />
    <glyph glyph-name="S" unicode="S" horiz-adv-x="909" 
d="M441 383c159.333 0 259.669 -9.33496 301.002 -28.002c51.333 -23.333 77 -79.333 77 -168c0 -84 -31 -139 -93 -165c-50.667 -21.333 -153.334 -32 -308.001 -32c-167.333 0 -275 18.333 -323 55c-36.667 28 -55 89 -55 183h102c0 -64.667 14.333 -105.167 43 -121.5
s106.667 -24.5 234 -24.5c124.667 0 205.5 6 242.5 18s55.5 41 55.5 87c0 46.667 -13.833 75.667 -41.5 87s-105.834 17 -234.501 17c-157.333 0 -263 19 -317 57c-41.333 28.667 -62 80.334 -62 155.001c0 80.667 24.833 132.834 74.5 156.501s151.167 35.5 304.5 35.5
c152.667 0 253 -18.333 301 -55c38 -29.333 57 -86.666 57 -171.999h-100c0 58.667 -15 95.667 -45 111s-101 23 -213 23c-96 0 -155 -1.33301 -177 -4c-66.667 -8 -100 -39.667 -100 -95c0 -46.667 18 -78.334 54 -95.001s110.333 -25 223 -25z" />
    <glyph glyph-name="T" unicode="T" horiz-adv-x="832" 
d="M52 684h715v-92h-306v-592h-102v592h-307v92z" />
    <glyph glyph-name="U" unicode="U" horiz-adv-x="916" 
d="M158 199c0 -53.333 14.833 -86.166 44.5 -98.499s108.5 -18.5 236.5 -18.5c129.333 0 208.666 6.16699 237.999 18.5s44 45.166 44 98.499v485h102v-485c0 -94 -18.667 -151.667 -56 -173c-41.333 -24 -150.666 -36 -327.999 -36c-176.667 0 -284.667 11.333 -324 34
s-59 81 -59 175v485h102v-485z" />
    <glyph glyph-name="V" unicode="V" horiz-adv-x="902" 
d="M787 684l-319 -592h-15l-319 592h-107l373 -684h121l372 684h-106z" />
    <glyph glyph-name="W" unicode="W" horiz-adv-x="1524" 
d="M168 683h-108l311 -683h130l235 547l237 -547h131l310 683h-107l-264 -584h-12l-250 584h-87l-251 -584h-11z" />
    <glyph glyph-name="X" unicode="X" horiz-adv-x="989" 
d="M467 405l-288 279h-141l349 -332l-356 -352h136l300 299h13l300 -299h139l-356 352l349 332h-145l-287 -279h-13z" />
    <glyph glyph-name="Y" unicode="Y" horiz-adv-x="968" 
d="M783 684h137l-405 -410v-274h-103v274l-404 410h137l319 -325z" />
    <glyph glyph-name="Z" unicode="Z" horiz-adv-x="899" 
d="M84 592v92h704v-92l-578 -500h578v-92h-727v92l585 500h-562z" />
    <glyph glyph-name="bracketleft" unicode="[" horiz-adv-x="240" 
d="M208 -10h-97v704h97v71h-199v-846h199v71z" />
    <glyph glyph-name="backslash" unicode="\" horiz-adv-x="834" 
d="M68 545l638 -545v131l-638 545v-131z" />
    <glyph glyph-name="bracketright" unicode="]" horiz-adv-x="240" 
d="M9 -10h97v704h-97v71h199v-846h-199v71z" />
    <glyph glyph-name="asciicircum" unicode="^" horiz-adv-x="392" 
d="M27 512l142 136h39l141 -136h-31l-130 95l-130 -95h-31z" />
    <glyph glyph-name="grave" unicode="`" horiz-adv-x="282" 
d="M76 706l149 -132l-27 -23l-163 109z" />
    <glyph glyph-name="a" unicode="a" horiz-adv-x="949" 
d="M535 684l360 -684h-115l-81 152h-488l-80 -152h-115l360 684h159zM655 243l-186 359h-26l-186 -359h398z" />
    <glyph glyph-name="b" unicode="b" horiz-adv-x="921" 
d="M817 200c0 -67.333 -18.499 -117.5 -55.499 -150.5s-91.167 -49.5 -162.5 -49.5h-549v684h525c70 0 123.667 -16.667 161 -50s56 -81.333 56 -144c0 -68.667 -25.667 -112.667 -77 -132c29.333 -10 52.666 -26.667 69.999 -50c21.333 -28.667 32 -64.667 32 -108z
M691.001 490c0 31.333 -8 55.333 -24 72c-19.333 20 -50 30 -92 30h-423v-194h423c43.333 0 73.5 7.5 90.5 22.5s25.5 38.167 25.5 69.5zM152.001 306l-0.000976562 -214h446c38.667 0 67.834 9.83301 87.501 29.5s29.5 45.5 29.5 77.5c0 31.333 -10 57 -30 77
s-49 30 -87 30h-446z" />
    <glyph glyph-name="c" unicode="c" horiz-adv-x="954" 
d="M165 341c0 -124.667 13.332 -199 39.999 -223s108.334 -36 245.001 -36c127.333 0 205 7 233 21c32.667 16.667 49 61.667 49 135h102c0 -108.667 -22.5 -177.167 -67.5 -205.5s-150.5 -42.5 -316.5 -42.5c-168.667 0 -275.334 20 -320.001 60s-67 137 -67 291
c0 154.667 22.167 252.167 66.5 292.5s151.166 60.5 320.499 60.5c166.667 0 272.334 -14 317.001 -42s67 -96.667 67 -206h-102c0 73.333 -15 117.5 -45 132.5s-109 22.5 -237 22.5c-137.333 0 -219.166 -11.833 -245.499 -35.5s-39.5 -98.5 -39.5 -224.5z" />
    <glyph glyph-name="d" unicode="d" horiz-adv-x="1028" 
d="M65 684h574c84.667 0 142.334 -15.667 173.001 -47c45.333 -46.667 68 -145 68 -295c0 -149.333 -22.667 -247.333 -68 -294c-30.667 -32 -88.334 -48 -173.001 -48h-574v684zM167 92h471c55.333 0 92.5 16.833 111.5 50.5s28.5 100.167 28.5 199.5
c0 98.667 -9.66699 165 -29 199s-56.333 51 -111 51h-471v-500z" />
    <glyph glyph-name="e" unicode="e" horiz-adv-x="840" 
d="M54 684h655v-92h-553v-199h534v-92h-534v-209h553v-92h-655v684z" />
    <glyph glyph-name="f" unicode="f" horiz-adv-x="811" 
d="M149 286v-286h-101v684h635v-92h-534v-214h514v-92h-514z" />
    <glyph glyph-name="g" unicode="g" horiz-adv-x="979" 
d="M142 341c0 -126 13.667 -201.001 41 -225.001s114.333 -36 261 -36c143.333 0 229.833 8.33301 259.5 25s44.5 67.334 44.5 152.001h-330v92h432v-92c0 -118 -24 -192.5 -72 -223.5s-159.333 -46.5 -334 -46.5c-177.333 0 -289 20.333 -335 61s-69 138.667 -69 294
s22.833 252.833 68.5 292.5s157.5 59.5 335.5 59.5c175.333 0 286.833 -13.167 334.5 -39.5s71.5 -90.833 71.5 -193.5h-102c0 66 -16 105.833 -48 119.5s-117.333 20.5 -256 20.5c-148 0 -235.333 -11.667 -262 -35s-40 -98.333 -40 -225z" />
    <glyph glyph-name="h" unicode="h" horiz-adv-x="986" 
d="M68 684h102v-290h589v290h101v-684h-101v302h-589v-302h-102v684z" />
    <glyph glyph-name="i" unicode="i" horiz-adv-x="298" 
d="M184 0h-102v684h102v-684z" />
    <glyph glyph-name="j" unicode="j" horiz-adv-x="811" 
d="M597 684h101v-429c0 -122.667 -21 -198.667 -63 -228c-35.333 -24.667 -125.666 -37 -270.999 -37c-141.333 0 -231.333 14.333 -270 43c-43.333 32 -65 106 -65 222h102c0 -78.667 11.667 -127.167 35 -145.5s89.666 -27.5 198.999 -27.5s175.333 9 198 27
s34 66.667 34 146v429z" />
    <glyph glyph-name="k" unicode="k" horiz-adv-x="953" 
d="M56 683h102v-288h100l442 288h178l-506 -332l519 -351h-173l-450 303h-110v-303h-102v683z" />
    <glyph glyph-name="l" unicode="l" horiz-adv-x="725" 
d="M48 684h101v-592h525v-92h-626v684z" />
    <glyph glyph-name="m" unicode="m" horiz-adv-x="1288" 
d="M258 684l354 -562l354 562h182v-684h-101v592h-20l-383 -592h-64l-383 592h-19v-592h-102v684h182z" />
    <glyph glyph-name="n" unicode="n" horiz-adv-x="1049" 
d="M69 685h149l587 -600v600h102v-685h-154l-582 595v-595h-102v685z" />
    <glyph glyph-name="o" unicode="o" horiz-adv-x="977" 
d="M477 -10c-142 0 -241.33 9.16699 -297.997 27.5s-92.667 53.166 -108 104.499c-10.667 35.333 -16 108.333 -16 219c0 112.667 5 185.667 15 219c15.333 52 51.666 87.333 108.999 106s156.666 28 297.999 28c142 0 241.167 -9.16699 297.5 -27.5
s92.5 -53.5 108.5 -105.5c10.667 -35.333 16 -108.666 16 -219.999c0 -112 -5 -184.667 -15 -218c-15.333 -52 -51.333 -87.167 -108 -105.5s-156.334 -27.5 -299.001 -27.5zM477.003 82c157.333 0 250 11.667 278 35s42 98 42 224c0 126.667 -13.833 201.667 -41.5 225
s-120.5 35 -278.5 35s-250.833 -11.667 -278.5 -35s-41.5 -98.333 -41.5 -225c0 -125.333 14 -199.833 42 -223.5s120.667 -35.5 278 -35.5z" />
    <glyph glyph-name="p" unicode="p" horiz-adv-x="902" 
d="M54 0v684h558c60.667 0 108.167 -18 142.5 -54s51.5 -90.667 51.5 -164s-17.5 -127.833 -52.5 -163.5s-83.5 -53.5 -145.5 -53.5h-452v-249h-102zM156 341l452.001 0.000976562c29.333 0 52.666 10 69.999 30s26 51.667 26 95s-8.5 75.166 -25.5 95.499
s-40.833 30.5 -71.5 30.5h-451v-251z" />
    <glyph glyph-name="q" unicode="q" horiz-adv-x="1033" 
d="M894 346c0 -52 -0.831055 -93.501 -2.49805 -124.501s-5.5 -59.167 -11.5 -84.5l77 -50l-50 -75l-71 47c-26 -26.667 -81 -45 -165 -55c-50.667 -6 -117 -9 -199 -9c-142 0 -241.333 9.16699 -298 27.5s-92.667 53.166 -108 104.499c-10.667 35.333 -16 108.333 -16 219
c0 112.667 5 185.667 15 219c15.333 51.333 51.666 86.333 108.999 105s156.666 28 297.999 28c142 0 241.333 -9.16699 298 -27.5s92.667 -53.166 108 -104.499c10.667 -35.333 16 -108.666 16 -219.999zM745.002 120.999l-243.999 161.999l49 75l236 -159
c2 12 3.5 32.333 4.5 61s1.5 57.334 1.5 86.001c0 126.667 -13.833 201.667 -41.5 225s-120.5 35 -278.5 35s-250.833 -11.667 -278.5 -35s-41.5 -98.333 -41.5 -225c0 -125.333 14 -199.833 42 -223.5s120.667 -35.5 278 -35.5c78 0 137.667 2 179 6
s72.666 13.333 93.999 28z" />
    <glyph glyph-name="r" unicode="r" horiz-adv-x="989" 
d="M64 684h614.001c58 0 102.667 -19.833 134 -59.5s47 -92.5 47 -158.5c0 -56.667 -9 -99 -27 -127c-12.667 -20 -33 -36 -61 -48c24.667 -10 44 -23 58 -39c20 -22.667 30 -50.667 30 -84v-168h-101v168c0 22.667 -10.833 41.5 -32.5 56.5s-47.834 22.5 -78.501 22.5h-481
v-247h-102v684zM166.001 340h471.001c37.333 0 64.666 6.33301 81.999 19c26 19.333 39 55 39 107s-12.667 87.333 -38 106c-18 13.333 -45.667 20 -83 20h-471v-252z" />
    <glyph glyph-name="s" unicode="s" horiz-adv-x="909" 
d="M441 383c159.333 0 259.669 -9.33496 301.002 -28.002c51.333 -23.333 77 -79.333 77 -168c0 -84 -31 -139 -93 -165c-50.667 -21.333 -153.334 -32 -308.001 -32c-167.333 0 -275 18.333 -323 55c-36.667 28 -55 89 -55 183h102c0 -64.667 14.333 -105.167 43 -121.5
s106.667 -24.5 234 -24.5c124.667 0 205.5 6 242.5 18s55.5 41 55.5 87c0 46.667 -13.833 75.667 -41.5 87s-105.834 17 -234.501 17c-157.333 0 -263 19 -317 57c-41.333 28.667 -62 80.334 -62 155.001c0 80.667 24.833 132.834 74.5 156.501s151.167 35.5 304.5 35.5
c152.667 0 253 -18.333 301 -55c38 -29.333 57 -86.666 57 -171.999h-100c0 58.667 -15 95.667 -45 111s-101 23 -213 23c-96 0 -155 -1.33301 -177 -4c-66.667 -8 -100 -39.667 -100 -95c0 -46.667 18 -78.334 54 -95.001s110.333 -25 223 -25z" />
    <glyph glyph-name="t" unicode="t" horiz-adv-x="832" 
d="M52 684h715v-92h-306v-592h-102v592h-307v92z" />
    <glyph glyph-name="u" unicode="u" horiz-adv-x="916" 
d="M158 199c0 -53.333 14.833 -86.166 44.5 -98.499s108.5 -18.5 236.5 -18.5c129.333 0 208.666 6.16699 237.999 18.5s44 45.166 44 98.499v485h102v-485c0 -94 -18.667 -151.667 -56 -173c-41.333 -24 -150.666 -36 -327.999 -36c-176.667 0 -284.667 11.333 -324 34
s-59 81 -59 175v485h102v-485z" />
    <glyph glyph-name="v" unicode="v" horiz-adv-x="902" 
d="M787 684l-319 -592h-15l-319 592h-107l373 -684h121l372 684h-106z" />
    <glyph glyph-name="w" unicode="w" horiz-adv-x="1524" 
d="M168 683h-108l311 -683h130l235 547l237 -547h131l310 683h-107l-264 -584h-12l-250 584h-87l-251 -584h-11z" />
    <glyph glyph-name="x" unicode="x" horiz-adv-x="989" 
d="M467 405l-288 279h-141l349 -332l-356 -352h136l300 299h13l300 -299h139l-356 352l349 332h-145l-287 -279h-13z" />
    <glyph glyph-name="y" unicode="y" horiz-adv-x="968" 
d="M783 684h137l-405 -410v-274h-103v274l-404 410h137l319 -325z" />
    <glyph glyph-name="z" unicode="z" horiz-adv-x="899" 
d="M84 592v92h704v-92l-578 -500h578v-92h-727v92l585 500h-562z" />
    <glyph glyph-name="braceleft" unicode="{" horiz-adv-x="294" 
d="M241 675c-32.667 0 -56.5 -7.83203 -71.5 -23.499s-22.5 -38.834 -22.5 -69.501v-188c0 -26 -9.66699 -49.667 -29 -71c-6 -6.66699 -15.667 -14.667 -29 -24c13.333 -11.333 23 -20.666 29 -27.999c19.333 -22.667 29 -45 29 -67v-188c0 -61.333 31.333 -92 94 -92v-52
h-6c-44.667 0 -79.5 12.167 -104.5 36.5s-37.5 60.166 -37.5 107.499v188c0 22.667 -10.333 45.334 -31 68.001c-6.66699 7.33301 -17 16.333 -31 27c14 10 24.333 18.667 31 26c20.667 22 31 45 31 69v188c0 47.333 11.5 83.666 34.5 108.999s60.833 38 113.5 38v-54z" />
    <glyph glyph-name="bar" unicode="|" horiz-adv-x="173" 
d="M56 718h55v-848h-55v848z" />
    <glyph glyph-name="braceright" unicode="}" horiz-adv-x="294" 
d="M31 675c32.667 0 56.333 -7.66992 71 -23.0029s22 -38.666 22 -69.999v-188c0 -26 9.66699 -49.667 29 -71c6 -6.66699 15.667 -14.667 29 -24c-13.333 -11.333 -23 -20.666 -29 -27.999c-19.333 -22.667 -29 -45 -29 -67v-188c0 -32 -7.33301 -55.333 -22 -70
s-38.334 -22 -71.001 -22v-52h6c94 0 141 48 141 144v188c0 22.667 10.333 45.334 31 68.001c6.66699 7.33301 17.334 16.333 32.001 27c-14 10 -24.333 18.667 -31 26c-21.333 22.667 -32 45.667 -32 69v188c0 47.333 -10.667 83 -32 107c-24 26.667 -62.333 40 -115 40
v-54z" />
    <glyph glyph-name="asciitilde" unicode="~" horiz-adv-x="554" 
d="M146 336l-66.0029 0.00292969c6.66699 22 14.334 38.333 23.001 49c26.667 33.333 65.334 50 116.001 50c24.667 0 54.667 -11.667 90 -35c16 -10.667 33.333 -16 52 -16l2 -2c23.333 0 40.333 8 51 24c3.33301 5.33301 6.33301 13.666 9 24.999h64
c-6.66699 -22.667 -14 -39.334 -22 -50.001c-24.667 -34 -62 -51 -112 -51l-2 2c-26 0 -50.667 8.33301 -74 25s-47 25 -71 25h-6c-19.333 0 -34 -7.66699 -44 -23c-3.33301 -4.66699 -6.66602 -12.334 -9.99902 -23.001z" />
    <glyph glyph-name="c143" horiz-adv-x="400" 
d="M49 746h120v-13h-54v-157h-12v157h-54v13zM164 578l38 170l53 -144l55 144l36 -170h-13l-26 127l-52 -136l-51 136l-27 -127h-13z" />
    <glyph glyph-name="nonbreakingspace" unicode="&#xa0;" horiz-adv-x="949" 
d="M535 684l360 -684h-115l-81 152h-488l-80 -152h-115l360 684h159zM655 243l-186 359h-26l-186 -359h398z" />
    <glyph glyph-name="brokenbar" unicode="&#xa6;" horiz-adv-x="174" 
d="M56 718h55v-848h-55v848z" />
    <glyph glyph-name="section" unicode="&#xa7;" horiz-adv-x="760" 
d="M535 202c40.667 0 69.333 7.5 86 22.5s25 36.5 25 64.5v41c0 21.333 -6.83301 39.5 -20.5 54.5s-31.5 22.5 -53.5 22.5h-399c-30.667 0 -53 -8.33301 -67 -25s-21 -40.667 -21 -72v-35c0 -48.667 24 -73 72 -73h378zM701.999 279c0 -32 -6.33398 -58 -19.001 -78
c-14.667 -23.333 -36 -37.333 -64 -42c8 -5.33301 13.667 -10.666 17 -15.999c12 -16.667 18 -37.334 18 -62.001v-32c0 -35.333 -13.333 -64.333 -40 -87s-62 -34 -106 -34h-293c-44.667 0 -80 13.667 -106 41s-39 61.666 -39 102.999v9h70v-9
c0 -26.667 6.66699 -47.667 20 -63s33 -23 59 -23h301c23.333 0 41.5 6.5 54.5 19.5s19.5 33.167 19.5 60.5c0 22.667 -6.66699 41.334 -20 56.001s-31.333 22 -54 22h-368c-36 0 -66.167 11 -90.5 33s-36.5 49.667 -36.5 83v54c0 36.667 9.33301 68 28 94
c14.667 20 30.667 32.667 48 38c-4 1.33301 -7 3 -9 5c-14.667 12 -22 34.333 -22 67v33c0 38 12.167 68.167 36.5 90.5s60.5 33.5 108.5 33.5h284c52.667 0 92 -13.667 118 -41c23.333 -24.667 35 -58 35 -100v-10h-70v10c0 28 -5.66699 48.333 -17 61
c-13.333 14.667 -36.666 22 -69.999 22h-287c-28 0 -48 -6.33301 -60 -19s-18 -31.667 -18 -57c0 -50 24 -75 72 -75h361c40 0 73.167 -11.167 99.5 -33.5s39.5 -50.833 39.5 -85.5v-68z" />
    <glyph glyph-name="copyright" unicode="&#xa9;" horiz-adv-x="652" 
d="M419 526c-9.33301 10 -17.334 17.334 -24.001 22.001c-21.333 14.667 -46.333 22 -75 22c-36 0 -64.333 -10.667 -85 -32s-31 -46 -31 -74c0 -28.667 9.66699 -53 29 -73c22 -22.667 51 -34 87 -34c29.333 0 54.666 8.33301 75.999 25
c6.66699 5.33301 14.334 13.666 23.001 24.999v-31c-9.33301 -8.66699 -17.333 -15 -24 -19c-21.333 -12.667 -46.333 -19 -75 -19c-43.333 0 -77.166 12.5 -101.499 37.5s-36.5 54.5 -36.5 88.5c0 33.333 11.667 62.333 35 87c26 27.333 60.333 41 103 41
c32 0 60.333 -9.33301 85 -28c4 -2.66699 8.66699 -7 14 -13v-25zM319.999 198.001c-87.333 0 -156.667 27.668 -208 83.001c-47.333 50.667 -71 112.334 -71 185.001c0 72 23.333 133.667 70 185c52 57.333 121.667 86 209 86s156.333 -28 207 -84
c46 -50.667 69 -112.334 69 -185.001s-23 -134.334 -69 -185.001c-51.333 -56.667 -120.333 -85 -207 -85zM319.998 716.002c-80.667 0 -145.001 -26 -193.001 -78c-43.333 -46.667 -65 -103.334 -65 -170.001s21.667 -123.667 65 -171c48 -52 112.333 -78 193 -78
s144.667 25.667 192 77c42.667 46.667 64 103.334 64 170.001c0 67.333 -21 124.333 -63 171c-47.333 52.667 -111.666 79 -192.999 79z" />
    <glyph glyph-name="ordfeminine" unicode="&#xaa;" 
d="M619 393h-466.999c0 95.333 15.667 153.833 47 175.5s110.666 32.5 237.999 32.5c129.333 0 207.333 -6.66699 234 -20c32.667 -16 49 -61 49 -135h102c0 108.667 -22.667 177.167 -68 205.5s-151 42.5 -317 42.5c-169.333 0 -277 -22 -323 -66
c-42.667 -40.667 -64 -136.334 -64 -287.001c0 -149.333 21.333 -244.333 64 -285c46 -44 153.667 -66 323 -66c166.667 0 272.5 14 317.5 42s67.5 96.667 67.5 206h-102c0 -73.333 -15.167 -117.666 -45.5 -132.999s-109.5 -23 -237.5 -23c-129.333 0 -208 10 -236 30
c-32.667 23.333 -49 86.333 -49 189h467v92z" />
    <glyph glyph-name="guillemotleft" unicode="&#xab;" horiz-adv-x="554" 
d="M114 270l165 -163l-33 -33l-196 196l200 199l31 -32zM289 270l165 -163l-33 -33l-196 196l200 199l31 -32z" />
    <glyph glyph-name="registered" unicode="&#xae;" horiz-adv-x="652" 
d="M230 618l124.001 -0.000976562c9.33301 -1.33301 16.333 -3 21 -5c31.333 -13.333 47 -39 47 -77c0 -23.333 -7.33301 -41.666 -22 -54.999s-31.334 -20 -50.001 -20h-52l128 -134h-27l-126 134h-20v-134h-23v291zM253.001 481.999l100.998 0.000976562
c10.667 2.66699 18.334 5.33398 23.001 8.00098c16 9.33301 24 23.666 24 42.999c0 24.667 -8 42.667 -24 54c-5.33301 3.33301 -13.666 6.66602 -24.999 9.99902h-99v-115zM319.999 198c-87.333 0 -156.667 27.668 -208 83.001c-47.333 50.667 -71 112.334 -71 185.001
c0 72 23.333 133.667 70 185c52 57.333 121.667 86 209 86s156.333 -28 207 -84c46 -50.667 69 -112.334 69 -185.001s-23 -134.334 -69 -185.001c-51.333 -56.667 -120.333 -85 -207 -85zM319.998 716.001c-80.667 0 -145.001 -26 -193.001 -78
c-43.333 -46.667 -65 -103.334 -65 -170.001s21.667 -123.667 65 -171c48 -52 112.333 -78 193 -78s144.667 25.667 192 77c42.667 46.667 64 103.334 64 170.001c0 67.333 -21 124.333 -63 171c-47.333 52.667 -111.666 79 -192.999 79z" />
    <glyph glyph-name="macron" unicode="&#xaf;" horiz-adv-x="242" 
d="M159 0h-102v684h102v-684zM235 728v77h-102v-77h102zM82 728v77h-101v-77h101z" />
    <glyph glyph-name="degree" unicode="&#xb0;" horiz-adv-x="282" 
d="M50 590c0 16.667 5 30.167 15 40.5s26.333 15.5 49 15.5h53c21.333 0 37.333 -5.33301 48 -16s16 -24 16 -40v-33c0 -16 -5.33301 -29.333 -16 -40s-26.667 -16 -48 -16h-53c-21.333 0 -37.333 5.33301 -48 16s-16 24 -16 40v33zM72 557c0 -23.333 14 -35 42 -35h53
c28.667 0 43 11.667 43 35v33c0 12 -3.83301 20.833 -11.5 26.5s-18.167 8.5 -31.5 8.5h-53c-28 0 -42 -11.667 -42 -35v-33z" />
    <glyph glyph-name="plusminus" unicode="&#xb1;" horiz-adv-x="446" 
d="M52 213h309v-69h-309v69zM35 442h140v140h64v-140h141v-66h-141v-139h-64v139h-140v66z" />
    <glyph glyph-name="twosuperior" unicode="&#xb2;" horiz-adv-x="280" 
d="M184 0h-102v684h102v-684zM184 728v77h-102v-77h102z" />
    <glyph glyph-name="paragraph" unicode="&#xb6;" horiz-adv-x="716" 
d="M497 -54h-76v343h-147c-80.667 0 -140.667 17 -180 51c-36.667 31.333 -55 76.333 -55 135c0 64 19.333 113 58 147s98 51 178 51h222v-727zM634 -54h-69v727h69v-727z" />
    <glyph glyph-name="periodcentered" unicode="&#xb7;" horiz-adv-x="196" 
d="M58 293v76h76v-76h-76z" />
    <glyph glyph-name="periodcentered" unicode="&#x2219;" horiz-adv-x="196" 
d="M58 293v76h76v-76h-76z" />
    <glyph glyph-name="onesuperior" unicode="&#xb9;" horiz-adv-x="1350" 
d="M54 685h150l587 -600v600h101v-685h-154l-582 595v-595h-102v685zM942 334h303v-39h-303v39zM938 504c0 29.333 8.33301 52.5 25 69.5s43.334 25.5 80.001 25.5h97c37.333 0 64.666 -9.33301 81.999 -28c15.333 -16 23 -38.333 23 -67v-52c0 -28 -7.66699 -50 -23 -66
c-18 -19.333 -45.333 -29 -82 -29h-97c-70 0 -105 31.667 -105 95v52zM973 452c0 -42.667 24.667 -64 74 -64h89c23.333 0 41.5 5 54.5 15s19.5 26.333 19.5 49v52c0 42.667 -24.667 64 -74 64h-89c-24.667 0 -43.167 -4.83301 -55.5 -14.5s-18.5 -26.167 -18.5 -49.5v-52z
" />
    <glyph glyph-name="ordmasculine" unicode="&#xba;" 
d="M619 393h-466.999c0 95.333 15.667 153.833 47 175.5s110.666 32.5 237.999 32.5c129.333 0 207.333 -6.66699 234 -20c32.667 -16 49 -61 49 -135h102c0 108.667 -22.667 177.167 -68 205.5s-151 42.5 -317 42.5c-169.333 0 -277 -22 -323 -66
c-42.667 -40.667 -64 -136.334 -64 -287.001c0 -149.333 21.333 -244.333 64 -285c46 -44 153.667 -66 323 -66c166.667 0 272.5 14 317.5 42s67.5 96.667 67.5 206h-102c0 -73.333 -15.167 -117.666 -45.5 -132.999s-109.5 -23 -237.5 -23c-129.333 0 -208 10 -236 30
c-32.667 23.333 -49 86.333 -49 189h467v92z" />
    <glyph glyph-name="guillemotright" unicode="&#xbb;" horiz-adv-x="554" 
d="M244 270l-166 168l31 31l199 -199l-194 -194l-33 31zM425 270l-169 168l33 31l200 -199l-196 -194l-31 31z" />
    <glyph glyph-name="onequarter" unicode="&#xbc;" horiz-adv-x="446" 
d="M52 318h319v-70h-319v70zM177 85v76h75v-76h-75zM177 404v75h75v-75h-75z" />
    <glyph glyph-name="questiondown" unicode="&#xbf;" horiz-adv-x="242" 
d="M159 0h-102v684h102v-684zM235 728v77h-102v-77h102zM82 728v77h-101v-77h101z" />
    <glyph glyph-name="Agrave" unicode="&#xc0;" horiz-adv-x="949" 
d="M535 684l360 -684h-115l-81 152h-488l-80 -152h-115l360 684h159zM655 243l-186 359h-26l-186 -359h398z" />
    <glyph glyph-name="Agrave" unicode="&#x410;" horiz-adv-x="949" 
d="M535 684l360 -684h-115l-81 152h-488l-80 -152h-115l360 684h159zM655 243l-186 359h-26l-186 -359h398z" />
    <glyph glyph-name="Aacute" unicode="&#xc1;" horiz-adv-x="919" 
d="M59 684h698v-92h-596v-194h452c64 0 113.333 -13.333 148 -40c43.333 -33.333 65 -86.333 65 -159c0 -73.333 -21.333 -126.333 -64 -159c-35.333 -26.667 -85 -40 -149 -40h-554v684zM725 199c0 34 -10.667 60.333 -32 79s-48 28 -80 28h-452v-214h451
c32 0 58.833 9.33301 80.5 28s32.5 45 32.5 79z" />
    <glyph glyph-name="Aacute" unicode="&#x411;" horiz-adv-x="919" 
d="M59 684h698v-92h-596v-194h452c64 0 113.333 -13.333 148 -40c43.333 -33.333 65 -86.333 65 -159c0 -73.333 -21.333 -126.333 -64 -159c-35.333 -26.667 -85 -40 -149 -40h-554v684zM725 199c0 34 -10.667 60.333 -32 79s-48 28 -80 28h-452v-214h451
c32 0 58.833 9.33301 80.5 28s32.5 45 32.5 79z" />
    <glyph glyph-name="Acircumflex" unicode="&#xc2;" horiz-adv-x="921" 
d="M817 200c0 -67.333 -18.499 -117.5 -55.499 -150.5s-91.167 -49.5 -162.5 -49.5h-549v684h525c70 0 123.667 -16.667 161 -50s56 -81.333 56 -144c0 -68.667 -25.667 -112.667 -77 -132c29.333 -10 52.666 -26.667 69.999 -50c21.333 -28.667 32 -64.667 32 -108z
M691.001 490c0 31.333 -8 55.333 -24 72c-19.333 20 -50 30 -92 30h-423v-194h423c43.333 0 73.5 7.5 90.5 22.5s25.5 38.167 25.5 69.5zM152.001 306l-0.000976562 -214h446c38.667 0 67.834 9.83301 87.501 29.5s29.5 45.5 29.5 77.5c0 31.333 -10 57 -30 77
s-49 30 -87 30h-446z" />
    <glyph glyph-name="Acircumflex" unicode="&#x412;" horiz-adv-x="921" 
d="M817 200c0 -67.333 -18.499 -117.5 -55.499 -150.5s-91.167 -49.5 -162.5 -49.5h-549v684h525c70 0 123.667 -16.667 161 -50s56 -81.333 56 -144c0 -68.667 -25.667 -112.667 -77 -132c29.333 -10 52.666 -26.667 69.999 -50c21.333 -28.667 32 -64.667 32 -108z
M691.001 490c0 31.333 -8 55.333 -24 72c-19.333 20 -50 30 -92 30h-423v-194h423c43.333 0 73.5 7.5 90.5 22.5s25.5 38.167 25.5 69.5zM152.001 306l-0.000976562 -214h446c38.667 0 67.834 9.83301 87.501 29.5s29.5 45.5 29.5 77.5c0 31.333 -10 57 -30 77
s-49 30 -87 30h-446z" />
    <glyph glyph-name="Atilde" unicode="&#xc3;" horiz-adv-x="729" 
d="M48 0h101v592h525v92h-626v-684z" />
    <glyph glyph-name="Atilde" unicode="&#x413;" horiz-adv-x="729" 
d="M48 0h101v592h525v92h-626v-684z" />
    <glyph glyph-name="Adieresis" unicode="&#xc4;" horiz-adv-x="968" 
d="M152 455v228h689v-591h49v-257h-94v165h-649v-165h-94v257h50c12.667 44 24 104.5 34 181.5s15 137.5 15 181.5zM739 591l-485 -0.000976562v-136c0 -52 -4 -113.667 -12 -185s-18.333 -130.666 -31 -177.999h528v499z" />
    <glyph glyph-name="Adieresis" unicode="&#x414;" horiz-adv-x="968" 
d="M152 455v228h689v-591h49v-257h-94v165h-649v-165h-94v257h50c12.667 44 24 104.5 34 181.5s15 137.5 15 181.5zM739 591l-485 -0.000976562v-136c0 -52 -4 -113.667 -12 -185s-18.333 -130.666 -31 -177.999h528v499z" />
    <glyph glyph-name="Aring" unicode="&#xc5;" horiz-adv-x="793" 
d="M49 684h655v-92h-553v-199h534v-92h-534v-209h553v-92h-655v684z" />
    <glyph glyph-name="Aring" unicode="&#x415;" horiz-adv-x="793" 
d="M49 684h655v-92h-553v-199h534v-92h-534v-209h553v-92h-655v684z" />
    <glyph glyph-name="AE" unicode="&#xc6;" horiz-adv-x="1401" 
d="M1130 683l-337 -286h-68v286h-102v-286h-69l-337 286h-153l398 -332l-444 -351h159l378 305h68v-305h102v305h67l379 -305h158l-443 351l397 332h-153z" />
    <glyph glyph-name="AE" unicode="&#x416;" horiz-adv-x="1401" 
d="M1130 683l-337 -286h-68v286h-102v-286h-69l-337 286h-153l398 -332l-444 -351h159l378 305h68v-305h102v305h67l379 -305h158l-443 351l397 332h-153z" />
    <glyph glyph-name="Ccedilla" unicode="&#xc7;" horiz-adv-x="914" 
d="M825 497c0 60.667 -20.332 106.667 -60.999 138c-34 26.667 -83 44 -147 52c-36.667 4.66699 -96.667 7 -180 7c-166.667 0 -272.334 -14 -317.001 -42s-67 -96.667 -67 -206h102c0 73.333 15 117.5 45 132.5s109 22.5 237 22.5c114.667 0 191 -6.16699 229 -18.5
s57 -40.833 57 -85.5c0 -42.667 -14.333 -71.667 -43 -87c-21.333 -11.333 -57.666 -17 -108.999 -17h-315v-92h315c48.667 0 84.667 -6.66699 108 -20c29.333 -16.667 44 -46.334 44 -89.001c0 -44.667 -19.833 -74.167 -59.5 -88.5s-115.167 -21.5 -226.5 -21.5
c-127.333 0 -205 7 -233 21c-32.667 16.667 -49 61.667 -49 135h-102c0 -108.667 22.667 -177.167 68 -205.5s150.666 -42.5 315.999 -42.5c104.667 0 175 2.33301 211 7c61.333 8 105.333 25.333 132 52c30 30 45 77.667 45 143c0 38.667 -6.16699 69.834 -18.5 93.501
s-30.833 42.167 -55.5 55.5c26 15.333 44.833 34 56.5 56s17.5 55.333 17.5 100z" />
    <glyph glyph-name="Ccedilla" unicode="&#x417;" horiz-adv-x="914" 
d="M825 497c0 60.667 -20.332 106.667 -60.999 138c-34 26.667 -83 44 -147 52c-36.667 4.66699 -96.667 7 -180 7c-166.667 0 -272.334 -14 -317.001 -42s-67 -96.667 -67 -206h102c0 73.333 15 117.5 45 132.5s109 22.5 237 22.5c114.667 0 191 -6.16699 229 -18.5
s57 -40.833 57 -85.5c0 -42.667 -14.333 -71.667 -43 -87c-21.333 -11.333 -57.666 -17 -108.999 -17h-315v-92h315c48.667 0 84.667 -6.66699 108 -20c29.333 -16.667 44 -46.334 44 -89.001c0 -44.667 -19.833 -74.167 -59.5 -88.5s-115.167 -21.5 -226.5 -21.5
c-127.333 0 -205 7 -233 21c-32.667 16.667 -49 61.667 -49 135h-102c0 -108.667 22.667 -177.167 68 -205.5s150.666 -42.5 315.999 -42.5c104.667 0 175 2.33301 211 7c61.333 8 105.333 25.333 132 52c30 30 45 77.667 45 143c0 38.667 -6.16699 69.834 -18.5 93.501
s-30.833 42.167 -55.5 55.5c26 15.333 44.833 34 56.5 56s17.5 55.333 17.5 100z" />
    <glyph glyph-name="Egrave" unicode="&#xc8;" horiz-adv-x="1004" 
d="M896 684h-149l-587 -600v600h-102v-684h154l582 594v-594h102v684z" />
    <glyph glyph-name="Egrave" unicode="&#x418;" horiz-adv-x="1004" 
d="M896 684h-149l-587 -600v600h-102v-684h154l582 594v-594h102v684z" />
    <glyph glyph-name="Eacute" unicode="&#xc9;" horiz-adv-x="1030" 
d="M902 685h-149l-587 -600v600h-102v-685h154l582 595v-595h102v685zM324 786h306v-92h-306v92z" />
    <glyph glyph-name="Eacute" unicode="&#x419;" horiz-adv-x="1030" 
d="M902 685h-149l-587 -600v600h-102v-685h154l582 595v-595h102v685zM324 786h306v-92h-306v92z" />
    <glyph glyph-name="Ecircumflex" unicode="&#xca;" horiz-adv-x="957" 
d="M71 0v684h102v-277h102l414 277h175l-480 -322l511 -362h-168l-452 315h-102v-315h-102z" />
    <glyph glyph-name="Ecircumflex" unicode="&#x41a;" horiz-adv-x="957" 
d="M71 0v684h102v-277h102l414 277h175l-480 -322l511 -362h-168l-452 315h-102v-315h-102z" />
    <glyph glyph-name="Edieresis" unicode="&#xcb;" horiz-adv-x="969" 
d="M36 92l40 -0.00292969c23.333 0 41.333 19.333 54 58c15.333 46.667 23 124.334 23 233.001v16v14v11c0 12 -0.166992 23.833 -0.5 35.5s-0.5 22.834 -0.5 33.501v191h699v-684h-102v592h-495v-129v-46c0 -63.333 -2 -118.666 -6 -165.999
c-6 -74 -16.667 -131.333 -32 -172c-19.333 -52.667 -46.333 -79 -81 -79h-99v92z" />
    <glyph glyph-name="Edieresis" unicode="&#x41b;" horiz-adv-x="969" 
d="M36 92l40 -0.00292969c23.333 0 41.333 19.333 54 58c15.333 46.667 23 124.334 23 233.001v16v14v11c0 12 -0.166992 23.833 -0.5 35.5s-0.5 22.834 -0.5 33.501v191h699v-684h-102v592h-495v-129v-46c0 -63.333 -2 -118.666 -6 -165.999
c-6 -74 -16.667 -131.333 -32 -172c-19.333 -52.667 -46.333 -79 -81 -79h-99v92z" />
    <glyph glyph-name="Igrave" unicode="&#xcc;" horiz-adv-x="1288" 
d="M258 684l354 -562l354 562h182v-684h-101v592h-20l-383 -592h-64l-383 592h-19v-592h-102v684h182z" />
    <glyph glyph-name="Igrave" unicode="&#x41c;" horiz-adv-x="1288" 
d="M258 684l354 -562l354 562h182v-684h-101v592h-20l-383 -592h-64l-383 592h-19v-592h-102v684h182z" />
    <glyph glyph-name="Iacute" unicode="&#xcd;" horiz-adv-x="947" 
d="M58 684h102v-290h589v290h102v-684h-102v302h-589v-302h-102v684z" />
    <glyph glyph-name="Iacute" unicode="&#x41d;" horiz-adv-x="947" 
d="M58 684h102v-290h589v290h102v-684h-102v302h-589v-302h-102v684z" />
    <glyph glyph-name="Icircumflex" unicode="&#xce;" horiz-adv-x="995" 
d="M477 -10c-142 0 -241.33 9.16699 -297.997 27.5s-92.667 53.166 -108 104.499c-10.667 35.333 -16 108.333 -16 219c0 112.667 5 185.667 15 219c15.333 52 51.666 87.333 108.999 106s156.666 28 297.999 28c142 0 241.167 -9.16699 297.5 -27.5
s92.5 -53.5 108.5 -105.5c10.667 -35.333 16 -108.666 16 -219.999c0 -112 -5 -184.667 -15 -218c-15.333 -52 -51.333 -87.167 -108 -105.5s-156.334 -27.5 -299.001 -27.5zM477.003 82c157.333 0 250 11.667 278 35s42 98 42 224c0 126.667 -13.833 201.667 -41.5 225
s-120.5 35 -278.5 35s-250.833 -11.667 -278.5 -35s-41.5 -98.333 -41.5 -225c0 -125.333 14 -199.833 42 -223.5s120.667 -35.5 278 -35.5z" />
    <glyph glyph-name="Icircumflex" unicode="&#x41e;" horiz-adv-x="995" 
d="M477 -10c-142 0 -241.33 9.16699 -297.997 27.5s-92.667 53.166 -108 104.499c-10.667 35.333 -16 108.333 -16 219c0 112.667 5 185.667 15 219c15.333 52 51.666 87.333 108.999 106s156.666 28 297.999 28c142 0 241.167 -9.16699 297.5 -27.5
s92.5 -53.5 108.5 -105.5c10.667 -35.333 16 -108.666 16 -219.999c0 -112 -5 -184.667 -15 -218c-15.333 -52 -51.333 -87.167 -108 -105.5s-156.334 -27.5 -299.001 -27.5zM477.003 82c157.333 0 250 11.667 278 35s42 98 42 224c0 126.667 -13.833 201.667 -41.5 225
s-120.5 35 -278.5 35s-250.833 -11.667 -278.5 -35s-41.5 -98.333 -41.5 -225c0 -125.333 14 -199.833 42 -223.5s120.667 -35.5 278 -35.5z" />
    <glyph glyph-name="Idieresis" unicode="&#xcf;" horiz-adv-x="961" 
d="M60 684h792v-684h-102v592h-588v-592h-102v684z" />
    <glyph glyph-name="Idieresis" unicode="&#x41f;" horiz-adv-x="961" 
d="M60 684h792v-684h-102v592h-588v-592h-102v684z" />
    <glyph glyph-name="Eth" unicode="&#xd0;" horiz-adv-x="902" 
d="M54 0v684h558c60.667 0 108.167 -18 142.5 -54s51.5 -90.667 51.5 -164s-17.5 -127.833 -52.5 -163.5s-83.5 -53.5 -145.5 -53.5h-452v-249h-102zM156 341l452.001 0.000976562c29.333 0 52.666 10 69.999 30s26 51.667 26 95s-8.5 75.166 -25.5 95.499
s-40.833 30.5 -71.5 30.5h-451v-251z" />
    <glyph glyph-name="Eth" unicode="&#x420;" horiz-adv-x="902" 
d="M54 0v684h558c60.667 0 108.167 -18 142.5 -54s51.5 -90.667 51.5 -164s-17.5 -127.833 -52.5 -163.5s-83.5 -53.5 -145.5 -53.5h-452v-249h-102zM156 341l452.001 0.000976562c29.333 0 52.666 10 69.999 30s26 51.667 26 95s-8.5 75.166 -25.5 95.499
s-40.833 30.5 -71.5 30.5h-451v-251z" />
    <glyph glyph-name="Ntilde" unicode="&#xd1;" horiz-adv-x="901" 
d="M148 341c0 -124.667 13.332 -199 39.999 -223s108.667 -36 246 -36c127.333 0 205 7 233 21c32.667 16.667 49 61.667 49 135h102c0 -108.667 -22.667 -177.167 -68 -205.5s-150.666 -42.5 -315.999 -42.5c-168.667 0 -275.334 20 -320.001 60s-67 137 -67 291
c0 155.333 22 253 66 293s151 60 321 60c166.667 0 272.334 -14 317.001 -42s67 -96.667 67 -206h-102c0 73.333 -15 117.5 -45 132.5s-109 22.5 -237 22.5c-138 0 -220.167 -11.833 -246.5 -35.5s-39.5 -98.5 -39.5 -224.5z" />
    <glyph glyph-name="Ntilde" unicode="&#x421;" horiz-adv-x="901" 
d="M148 341c0 -124.667 13.332 -199 39.999 -223s108.667 -36 246 -36c127.333 0 205 7 233 21c32.667 16.667 49 61.667 49 135h102c0 -108.667 -22.667 -177.167 -68 -205.5s-150.666 -42.5 -315.999 -42.5c-168.667 0 -275.334 20 -320.001 60s-67 137 -67 291
c0 155.333 22 253 66 293s151 60 321 60c166.667 0 272.334 -14 317.001 -42s67 -96.667 67 -206h-102c0 73.333 -15 117.5 -45 132.5s-109 22.5 -237 22.5c-138 0 -220.167 -11.833 -246.5 -35.5s-39.5 -98.5 -39.5 -224.5z" />
    <glyph glyph-name="Ograve" unicode="&#xd2;" horiz-adv-x="795" 
d="M26 684h715v-92h-306v-592h-102v592h-307v92z" />
    <glyph glyph-name="Ograve" unicode="&#x422;" horiz-adv-x="795" 
d="M26 684h715v-92h-306v-592h-102v592h-307v92z" />
    <glyph glyph-name="Oacute" unicode="&#xd3;" horiz-adv-x="1011" 
d="M407 92c28 0 51.5 4 70.5 12s34.167 22.333 45.5 43l-498 537h140l414 -455l259 455h116l-322 -563c-24 -41.333 -54 -71.833 -90 -91.5s-82.333 -29.5 -139 -29.5h-224v92h228z" />
    <glyph glyph-name="Oacute" unicode="&#x423;" horiz-adv-x="1011" 
d="M407 92c28 0 51.5 4 70.5 12s34.167 22.333 45.5 43l-498 537h140l414 -455l259 455h116l-322 -563c-24 -41.333 -54 -71.833 -90 -91.5s-82.333 -29.5 -139 -29.5h-224v92h228z" />
    <glyph glyph-name="Ocircumflex" unicode="&#xd4;" horiz-adv-x="1261" 
d="M555 606l-266 0.00195312c-80 0 -136 -14.333 -168 -43c-40.667 -36.667 -61 -107.334 -61 -212.001s20.333 -177.334 61 -218.001c34 -34 90 -51 168 -51h266v-82h102v82h265c78 0 134 17 168 51c40.667 40.667 61 113.334 61 218.001
c0 103.333 -20.333 173.666 -61 210.999c-32 29.333 -88 44 -168 44h-265v78h-102v-78zM555 514.002v-339h-266c-45.333 0 -77.833 13.167 -97.5 39.5s-29.5 71.833 -29.5 136.5c0 62.667 9.66699 105.5 29 128.5s52 34.5 98 34.5h266zM657 175.002v339h265
c46.667 0 79.667 -11.333 99 -34s29 -65.667 29 -129c0 -64.667 -9.83301 -110.167 -29.5 -136.5s-52.5 -39.5 -98.5 -39.5h-265z" />
    <glyph glyph-name="Ocircumflex" unicode="&#x424;" horiz-adv-x="1261" 
d="M555 606l-266 0.00195312c-80 0 -136 -14.333 -168 -43c-40.667 -36.667 -61 -107.334 -61 -212.001s20.333 -177.334 61 -218.001c34 -34 90 -51 168 -51h266v-82h102v82h265c78 0 134 17 168 51c40.667 40.667 61 113.334 61 218.001
c0 103.333 -20.333 173.666 -61 210.999c-32 29.333 -88 44 -168 44h-265v78h-102v-78zM555 514.002v-339h-266c-45.333 0 -77.833 13.167 -97.5 39.5s-29.5 71.833 -29.5 136.5c0 62.667 9.66699 105.5 29 128.5s52 34.5 98 34.5h266zM657 175.002v339h265
c46.667 0 79.667 -11.333 99 -34s29 -65.667 29 -129c0 -64.667 -9.83301 -110.167 -29.5 -136.5s-52.5 -39.5 -98.5 -39.5h-265z" />
    <glyph glyph-name="Otilde" unicode="&#xd5;" horiz-adv-x="945" 
d="M749 684h141l-351 -342l351 -342h-134l-293 290l-293 -290h-135l351 342l-351 342h142l286 -288z" />
    <glyph glyph-name="Otilde" unicode="&#x425;" horiz-adv-x="945" 
d="M749 684h141l-351 -342l351 -342h-134l-293 290l-293 -290h-135l351 342l-351 342h142l286 -288z" />
    <glyph glyph-name="Odieresis" unicode="&#xd6;" horiz-adv-x="977" 
d="M175 92h588v592h102v-592h50v-257h-94v165h-748v684h102v-592z" />
    <glyph glyph-name="Odieresis" unicode="&#x426;" horiz-adv-x="977" 
d="M175 92h588v592h102v-592h50v-257h-94v165h-748v684h102v-592z" />
    <glyph glyph-name="multiply" unicode="&#xd7;" 
d="M160 684l0.000976562 -239.001c0 -31.333 12.833 -57.5 38.5 -78.5s61.5 -31.5 107.5 -31.5h412v349h102v-684h-102v243h-412c-78.667 0 -140.334 19.667 -185.001 59c-42 36.667 -63 84.334 -63 143.001v239h102z" />
    <glyph glyph-name="multiply" unicode="&#x427;" 
d="M160 684l0.000976562 -239.001c0 -31.333 12.833 -57.5 38.5 -78.5s61.5 -31.5 107.5 -31.5h412v349h102v-684h-102v243h-412c-78.667 0 -140.334 19.667 -185.001 59c-42 36.667 -63 84.334 -63 143.001v239h102z" />
    <glyph glyph-name="Oslash" unicode="&#xd8;" horiz-adv-x="1288" 
d="M99 0v684h102v-592h380v592h102v-592h380v592h102v-684h-1066z" />
    <glyph glyph-name="Oslash" unicode="&#x428;" horiz-adv-x="1288" 
d="M99 0v684h102v-592h380v592h102v-592h380v592h102v-684h-1066z" />
    <glyph glyph-name="Ugrave" unicode="&#xd9;" horiz-adv-x="1305" 
d="M96 0v684h102v-592h380v592h102v-592h380v592h102v-592h50v-257h-95v165h-1021z" />
    <glyph glyph-name="Ugrave" unicode="&#x429;" horiz-adv-x="1305" 
d="M96 0v684h102v-592h380v592h102v-592h380v592h102v-592h50v-257h-95v165h-1021z" />
    <glyph glyph-name="Uacute" unicode="&#xda;" horiz-adv-x="1024" 
d="M164 592h-125v92h227v-250h453c60.667 0 108 -17 142 -51c36.667 -36.667 55 -91.667 55 -165c0 -74 -16.833 -128.833 -50.5 -164.5s-81.5 -53.5 -143.5 -53.5h-558v592zM266 341v-249h451c30 0 53.667 10.167 71 30.5s26 52.166 26 95.499
c0 42.667 -8.5 73.834 -25.5 93.501s-40.5 29.5 -70.5 29.5h-452z" />
    <glyph glyph-name="Uacute" unicode="&#x42a;" horiz-adv-x="1024" 
d="M164 592h-125v92h227v-250h453c60.667 0 108 -17 142 -51c36.667 -36.667 55 -91.667 55 -165c0 -74 -16.833 -128.833 -50.5 -164.5s-81.5 -53.5 -143.5 -53.5h-558v592zM266 341v-249h451c30 0 53.667 10.167 71 30.5s26 52.166 26 95.499
c0 42.667 -8.5 73.834 -25.5 93.501s-40.5 29.5 -70.5 29.5h-452z" />
    <glyph glyph-name="Ucircumflex" unicode="&#xdb;" horiz-adv-x="1177" 
d="M1070 0h-102v684h102v-684zM80 684h100.999v-250h452c62.667 0 110.667 -17 144 -51c36 -36.667 54 -91.667 54 -165c0 -74 -17.167 -128.833 -51.5 -164.5s-83.166 -53.5 -146.499 -53.5h-553v684zM180.999 341v-249h452c30 0 53.5 10.167 70.5 30.5
s25.5 52.166 25.5 95.499c0 42.667 -8.5 73.834 -25.5 93.501s-40.5 29.5 -70.5 29.5h-452z" />
    <glyph glyph-name="Ucircumflex" unicode="&#x42b;" horiz-adv-x="1177" 
d="M1070 0h-102v684h102v-684zM80 684h100.999v-250h452c62.667 0 110.667 -17 144 -51c36 -36.667 54 -91.667 54 -165c0 -74 -17.167 -128.833 -51.5 -164.5s-83.166 -53.5 -146.499 -53.5h-553v684zM180.999 341v-249h452c30 0 53.5 10.167 70.5 30.5
s25.5 52.166 25.5 95.499c0 42.667 -8.5 73.834 -25.5 93.501s-40.5 29.5 -70.5 29.5h-452z" />
    <glyph glyph-name="Udieresis" unicode="&#xdc;" 
d="M69 684h102v-250h451c62 0 110 -17 144 -51c36.667 -36.667 55 -91.667 55 -165c0 -74 -16.833 -128.833 -50.5 -164.5s-81.5 -53.5 -143.5 -53.5h-558v684zM171 341v-249h451c30 0 53.667 10.167 71 30.5s26 52.166 26 95.499c0 42.667 -8.5 73.834 -25.5 93.501
s-40.5 29.5 -70.5 29.5h-452z" />
    <glyph glyph-name="Udieresis" unicode="&#x42c;" 
d="M69 684h102v-250h451c62 0 110 -17 144 -51c36.667 -36.667 55 -91.667 55 -165c0 -74 -16.833 -128.833 -50.5 -164.5s-81.5 -53.5 -143.5 -53.5h-558v684zM171 341v-249h451c30 0 53.667 10.167 71 30.5s26 52.166 26 95.499c0 42.667 -8.5 73.834 -25.5 93.501
s-40.5 29.5 -70.5 29.5h-452z" />
    <glyph glyph-name="Yacute" unicode="&#xdd;" 
d="M252 393h466.999c0 95.333 -15.667 153.833 -47 175.5s-110.666 32.5 -237.999 32.5c-129.333 0 -207.333 -6.66699 -234 -20c-32.667 -16 -49 -61 -49 -135h-102c0 108.667 22.667 177.167 68 205.5s151 42.5 317 42.5c169.333 0 277 -22 323 -66
c42.667 -40.667 64 -136.334 64 -287.001c0 -149.333 -21.333 -244.333 -64 -285c-46 -44 -153.667 -66 -323 -66c-166.667 0 -272.5 14 -317.5 42s-67.5 96.667 -67.5 206h102c0 -73.333 15.167 -117.666 45.5 -132.999s109.5 -23 237.5 -23c129.333 0 208 10 236 30
c32.667 23.333 49 86.333 49 189h-467v92z" />
    <glyph glyph-name="Yacute" unicode="&#x42d;" 
d="M252 393h466.999c0 95.333 -15.667 153.833 -47 175.5s-110.666 32.5 -237.999 32.5c-129.333 0 -207.333 -6.66699 -234 -20c-32.667 -16 -49 -61 -49 -135h-102c0 108.667 22.667 177.167 68 205.5s151 42.5 317 42.5c169.333 0 277 -22 323 -66
c42.667 -40.667 64 -136.334 64 -287.001c0 -149.333 -21.333 -244.333 -64 -285c-46 -44 -153.667 -66 -323 -66c-166.667 0 -272.5 14 -317.5 42s-67.5 96.667 -67.5 206h102c0 -73.333 15.167 -117.666 45.5 -132.999s109.5 -23 237.5 -23c129.333 0 208 10 236 30
c32.667 23.333 49 86.333 49 189h-467v92z" />
    <glyph glyph-name="Thorn" unicode="&#xde;" horiz-adv-x="1247" 
d="M1132 341c0 -112 -4.99902 -184.668 -14.999 -218.001c-15.333 -52 -51.333 -87.167 -108 -105.5s-156.334 -27.5 -299.001 -27.5c-188.667 0 -306.167 17.333 -352.5 52s-69.5 119 -69.5 253h-126v-295h-102v684h102v-297h126c0 134 22.333 218 67 252
c48 36.667 166.333 55 355 55c142 0 241.167 -9.16699 297.5 -27.5s92.5 -53.5 108.5 -105.5c10.667 -35.333 16 -108.666 16 -219.999zM710.001 81.999c157.333 0 250 11.667 278 35s42 98 42 224c0 126.667 -13.833 201.667 -41.5 225s-120.5 35 -278.5 35
s-250.833 -11.667 -278.5 -35s-41.5 -98.333 -41.5 -225c0 -125.333 14 -199.833 42 -223.5s120.667 -35.5 278 -35.5z" />
    <glyph glyph-name="Thorn" unicode="&#x42e;" horiz-adv-x="1247" 
d="M1132 341c0 -112 -4.99902 -184.668 -14.999 -218.001c-15.333 -52 -51.333 -87.167 -108 -105.5s-156.334 -27.5 -299.001 -27.5c-188.667 0 -306.167 17.333 -352.5 52s-69.5 119 -69.5 253h-126v-295h-102v684h102v-297h126c0 134 22.333 218 67 252
c48 36.667 166.333 55 355 55c142 0 241.167 -9.16699 297.5 -27.5s92.5 -53.5 108.5 -105.5c10.667 -35.333 16 -108.666 16 -219.999zM710.001 81.999c157.333 0 250 11.667 278 35s42 98 42 224c0 126.667 -13.833 201.667 -41.5 225s-120.5 35 -278.5 35
s-250.833 -11.667 -278.5 -35s-41.5 -98.333 -41.5 -225c0 -125.333 14 -199.833 42 -223.5s120.667 -35.5 278 -35.5z" />
    <glyph glyph-name="germandbls" unicode="&#xdf;" horiz-adv-x="963" 
d="M837 684l0.999023 -684h-102v247h-481c-30 0 -55.833 -7.5 -77.5 -22.5s-32.5 -33.833 -32.5 -56.5v-168h-102v168c0 33.333 9.66699 61 29 83c14.667 16.667 34.334 30 59.001 40c-28 12 -48.333 27.667 -61 47c-18 28 -27 70.667 -27 128c0 66 15.667 118.833 47 158.5
s76 59.5 134 59.5h613zM735.999 340v251.999h-471c-36.667 0 -63.667 -6.33301 -81 -19c-26 -19.333 -39 -55 -39 -107c0 -51.333 12.667 -86.666 38 -105.999c18 -13.333 45.333 -20 82 -20h471z" />
    <glyph glyph-name="germandbls" unicode="&#x42f;" horiz-adv-x="963" 
d="M837 684l0.999023 -684h-102v247h-481c-30 0 -55.833 -7.5 -77.5 -22.5s-32.5 -33.833 -32.5 -56.5v-168h-102v168c0 33.333 9.66699 61 29 83c14.667 16.667 34.334 30 59.001 40c-28 12 -48.333 27.667 -61 47c-18 28 -27 70.667 -27 128c0 66 15.667 118.833 47 158.5
s76 59.5 134 59.5h613zM735.999 340v251.999h-471c-36.667 0 -63.667 -6.33301 -81 -19c-26 -19.333 -39 -55 -39 -107c0 -51.333 12.667 -86.666 38 -105.999c18 -13.333 45.333 -20 82 -20h471z" />
    <glyph glyph-name="agrave" unicode="&#xe0;" horiz-adv-x="949" 
d="M535 684l360 -684h-115l-81 152h-488l-80 -152h-115l360 684h159zM655 243l-186 359h-26l-186 -359h398z" />
    <glyph glyph-name="agrave" unicode="&#x430;" horiz-adv-x="949" 
d="M535 684l360 -684h-115l-81 152h-488l-80 -152h-115l360 684h159zM655 243l-186 359h-26l-186 -359h398z" />
    <glyph glyph-name="aacute" unicode="&#xe1;" horiz-adv-x="919" 
d="M59 684h698v-92h-596v-194h452c64 0 113.333 -13.333 148 -40c43.333 -33.333 65 -86.333 65 -159c0 -73.333 -21.333 -126.333 -64 -159c-35.333 -26.667 -85 -40 -149 -40h-554v684zM725 199c0 34 -10.667 60.333 -32 79s-48 28 -80 28h-452v-214h451
c32 0 58.833 9.33301 80.5 28s32.5 45 32.5 79z" />
    <glyph glyph-name="aacute" unicode="&#x431;" horiz-adv-x="919" 
d="M59 684h698v-92h-596v-194h452c64 0 113.333 -13.333 148 -40c43.333 -33.333 65 -86.333 65 -159c0 -73.333 -21.333 -126.333 -64 -159c-35.333 -26.667 -85 -40 -149 -40h-554v684zM725 199c0 34 -10.667 60.333 -32 79s-48 28 -80 28h-452v-214h451
c32 0 58.833 9.33301 80.5 28s32.5 45 32.5 79z" />
    <glyph glyph-name="acircumflex" unicode="&#xe2;" horiz-adv-x="921" 
d="M817 200c0 -67.333 -18.499 -117.5 -55.499 -150.5s-91.167 -49.5 -162.5 -49.5h-549v684h525c70 0 123.667 -16.667 161 -50s56 -81.333 56 -144c0 -68.667 -25.667 -112.667 -77 -132c29.333 -10 52.666 -26.667 69.999 -50c21.333 -28.667 32 -64.667 32 -108z
M691.001 490c0 31.333 -8 55.333 -24 72c-19.333 20 -50 30 -92 30h-423v-194h423c43.333 0 73.5 7.5 90.5 22.5s25.5 38.167 25.5 69.5zM152.001 306l-0.000976562 -214h446c38.667 0 67.834 9.83301 87.501 29.5s29.5 45.5 29.5 77.5c0 31.333 -10 57 -30 77
s-49 30 -87 30h-446z" />
    <glyph glyph-name="acircumflex" unicode="&#x432;" horiz-adv-x="921" 
d="M817 200c0 -67.333 -18.499 -117.5 -55.499 -150.5s-91.167 -49.5 -162.5 -49.5h-549v684h525c70 0 123.667 -16.667 161 -50s56 -81.333 56 -144c0 -68.667 -25.667 -112.667 -77 -132c29.333 -10 52.666 -26.667 69.999 -50c21.333 -28.667 32 -64.667 32 -108z
M691.001 490c0 31.333 -8 55.333 -24 72c-19.333 20 -50 30 -92 30h-423v-194h423c43.333 0 73.5 7.5 90.5 22.5s25.5 38.167 25.5 69.5zM152.001 306l-0.000976562 -214h446c38.667 0 67.834 9.83301 87.501 29.5s29.5 45.5 29.5 77.5c0 31.333 -10 57 -30 77
s-49 30 -87 30h-446z" />
    <glyph glyph-name="atilde" unicode="&#xe3;" horiz-adv-x="729" 
d="M48 0h101v592h525v92h-626v-684z" />
    <glyph glyph-name="atilde" unicode="&#x433;" horiz-adv-x="729" 
d="M48 0h101v592h525v92h-626v-684z" />
    <glyph glyph-name="adieresis" unicode="&#xe4;" horiz-adv-x="968" 
d="M152 455v228h689v-591h49v-257h-94v165h-649v-165h-94v257h50c12.667 44 24 104.5 34 181.5s15 137.5 15 181.5zM739 591l-485 -0.000976562v-136c0 -52 -4 -113.667 -12 -185s-18.333 -130.666 -31 -177.999h528v499z" />
    <glyph glyph-name="adieresis" unicode="&#x434;" horiz-adv-x="968" 
d="M152 455v228h689v-591h49v-257h-94v165h-649v-165h-94v257h50c12.667 44 24 104.5 34 181.5s15 137.5 15 181.5zM739 591l-485 -0.000976562v-136c0 -52 -4 -113.667 -12 -185s-18.333 -130.666 -31 -177.999h528v499z" />
    <glyph glyph-name="aring" unicode="&#xe5;" horiz-adv-x="793" 
d="M49 684h655v-92h-553v-199h534v-92h-534v-209h553v-92h-655v684z" />
    <glyph glyph-name="aring" unicode="&#x435;" horiz-adv-x="793" 
d="M49 684h655v-92h-553v-199h534v-92h-534v-209h553v-92h-655v684z" />
    <glyph glyph-name="ae" unicode="&#xe6;" horiz-adv-x="1401" 
d="M1130 683l-337 -286h-68v286h-102v-286h-69l-337 286h-153l398 -332l-444 -351h159l378 305h68v-305h102v305h67l379 -305h158l-443 351l397 332h-153z" />
    <glyph glyph-name="ae" unicode="&#x436;" horiz-adv-x="1401" 
d="M1130 683l-337 -286h-68v286h-102v-286h-69l-337 286h-153l398 -332l-444 -351h159l378 305h68v-305h102v305h67l379 -305h158l-443 351l397 332h-153z" />
    <glyph glyph-name="ccedilla" unicode="&#xe7;" horiz-adv-x="914" 
d="M825 497c0 60.667 -20.332 106.667 -60.999 138c-34 26.667 -83 44 -147 52c-36.667 4.66699 -96.667 7 -180 7c-166.667 0 -272.334 -14 -317.001 -42s-67 -96.667 -67 -206h102c0 73.333 15 117.5 45 132.5s109 22.5 237 22.5c114.667 0 191 -6.16699 229 -18.5
s57 -40.833 57 -85.5c0 -42.667 -14.333 -71.667 -43 -87c-21.333 -11.333 -57.666 -17 -108.999 -17h-315v-92h315c48.667 0 84.667 -6.66699 108 -20c29.333 -16.667 44 -46.334 44 -89.001c0 -44.667 -19.833 -74.167 -59.5 -88.5s-115.167 -21.5 -226.5 -21.5
c-127.333 0 -205 7 -233 21c-32.667 16.667 -49 61.667 -49 135h-102c0 -108.667 22.667 -177.167 68 -205.5s150.666 -42.5 315.999 -42.5c104.667 0 175 2.33301 211 7c61.333 8 105.333 25.333 132 52c30 30 45 77.667 45 143c0 38.667 -6.16699 69.834 -18.5 93.501
s-30.833 42.167 -55.5 55.5c26 15.333 44.833 34 56.5 56s17.5 55.333 17.5 100z" />
    <glyph glyph-name="ccedilla" unicode="&#x437;" horiz-adv-x="914" 
d="M825 497c0 60.667 -20.332 106.667 -60.999 138c-34 26.667 -83 44 -147 52c-36.667 4.66699 -96.667 7 -180 7c-166.667 0 -272.334 -14 -317.001 -42s-67 -96.667 -67 -206h102c0 73.333 15 117.5 45 132.5s109 22.5 237 22.5c114.667 0 191 -6.16699 229 -18.5
s57 -40.833 57 -85.5c0 -42.667 -14.333 -71.667 -43 -87c-21.333 -11.333 -57.666 -17 -108.999 -17h-315v-92h315c48.667 0 84.667 -6.66699 108 -20c29.333 -16.667 44 -46.334 44 -89.001c0 -44.667 -19.833 -74.167 -59.5 -88.5s-115.167 -21.5 -226.5 -21.5
c-127.333 0 -205 7 -233 21c-32.667 16.667 -49 61.667 -49 135h-102c0 -108.667 22.667 -177.167 68 -205.5s150.666 -42.5 315.999 -42.5c104.667 0 175 2.33301 211 7c61.333 8 105.333 25.333 132 52c30 30 45 77.667 45 143c0 38.667 -6.16699 69.834 -18.5 93.501
s-30.833 42.167 -55.5 55.5c26 15.333 44.833 34 56.5 56s17.5 55.333 17.5 100z" />
    <glyph glyph-name="egrave" unicode="&#xe8;" horiz-adv-x="1004" 
d="M896 684h-149l-587 -600v600h-102v-684h154l582 594v-594h102v684z" />
    <glyph glyph-name="egrave" unicode="&#x438;" horiz-adv-x="1004" 
d="M896 684h-149l-587 -600v600h-102v-684h154l582 594v-594h102v684z" />
    <glyph glyph-name="eacute" unicode="&#xe9;" horiz-adv-x="1030" 
d="M902 685h-149l-587 -600v600h-102v-685h154l582 595v-595h102v685zM324 786h306v-92h-306v92z" />
    <glyph glyph-name="eacute" unicode="&#x439;" horiz-adv-x="1030" 
d="M902 685h-149l-587 -600v600h-102v-685h154l582 595v-595h102v685zM324 786h306v-92h-306v92z" />
    <glyph glyph-name="ecircumflex" unicode="&#xea;" horiz-adv-x="957" 
d="M71 0v684h102v-277h102l414 277h175l-480 -322l511 -362h-168l-452 315h-102v-315h-102z" />
    <glyph glyph-name="ecircumflex" unicode="&#x43a;" horiz-adv-x="957" 
d="M71 0v684h102v-277h102l414 277h175l-480 -322l511 -362h-168l-452 315h-102v-315h-102z" />
    <glyph glyph-name="edieresis" unicode="&#xeb;" horiz-adv-x="969" 
d="M36 92l40 -0.00292969c23.333 0 41.333 19.333 54 58c15.333 46.667 23 124.334 23 233.001v16v14v11c0 12 -0.166992 23.833 -0.5 35.5s-0.5 22.834 -0.5 33.501v191h699v-684h-102v592h-495v-129v-46c0 -63.333 -2 -118.666 -6 -165.999
c-6 -74 -16.667 -131.333 -32 -172c-19.333 -52.667 -46.333 -79 -81 -79h-99v92z" />
    <glyph glyph-name="edieresis" unicode="&#x43b;" horiz-adv-x="969" 
d="M36 92l40 -0.00292969c23.333 0 41.333 19.333 54 58c15.333 46.667 23 124.334 23 233.001v16v14v11c0 12 -0.166992 23.833 -0.5 35.5s-0.5 22.834 -0.5 33.501v191h699v-684h-102v592h-495v-129v-46c0 -63.333 -2 -118.666 -6 -165.999
c-6 -74 -16.667 -131.333 -32 -172c-19.333 -52.667 -46.333 -79 -81 -79h-99v92z" />
    <glyph glyph-name="igrave" unicode="&#xec;" horiz-adv-x="1288" 
d="M258 684l354 -562l354 562h182v-684h-101v592h-20l-383 -592h-64l-383 592h-19v-592h-102v684h182z" />
    <glyph glyph-name="igrave" unicode="&#x43c;" horiz-adv-x="1288" 
d="M258 684l354 -562l354 562h182v-684h-101v592h-20l-383 -592h-64l-383 592h-19v-592h-102v684h182z" />
    <glyph glyph-name="iacute" unicode="&#xed;" horiz-adv-x="947" 
d="M58 684h102v-290h589v290h102v-684h-102v302h-589v-302h-102v684z" />
    <glyph glyph-name="iacute" unicode="&#x43d;" horiz-adv-x="947" 
d="M58 684h102v-290h589v290h102v-684h-102v302h-589v-302h-102v684z" />
    <glyph glyph-name="icircumflex" unicode="&#xee;" horiz-adv-x="995" 
d="M477 -10c-142 0 -241.33 9.16699 -297.997 27.5s-92.667 53.166 -108 104.499c-10.667 35.333 -16 108.333 -16 219c0 112.667 5 185.667 15 219c15.333 52 51.666 87.333 108.999 106s156.666 28 297.999 28c142 0 241.167 -9.16699 297.5 -27.5
s92.5 -53.5 108.5 -105.5c10.667 -35.333 16 -108.666 16 -219.999c0 -112 -5 -184.667 -15 -218c-15.333 -52 -51.333 -87.167 -108 -105.5s-156.334 -27.5 -299.001 -27.5zM477.003 82c157.333 0 250 11.667 278 35s42 98 42 224c0 126.667 -13.833 201.667 -41.5 225
s-120.5 35 -278.5 35s-250.833 -11.667 -278.5 -35s-41.5 -98.333 -41.5 -225c0 -125.333 14 -199.833 42 -223.5s120.667 -35.5 278 -35.5z" />
    <glyph glyph-name="icircumflex" unicode="&#x43e;" horiz-adv-x="995" 
d="M477 -10c-142 0 -241.33 9.16699 -297.997 27.5s-92.667 53.166 -108 104.499c-10.667 35.333 -16 108.333 -16 219c0 112.667 5 185.667 15 219c15.333 52 51.666 87.333 108.999 106s156.666 28 297.999 28c142 0 241.167 -9.16699 297.5 -27.5
s92.5 -53.5 108.5 -105.5c10.667 -35.333 16 -108.666 16 -219.999c0 -112 -5 -184.667 -15 -218c-15.333 -52 -51.333 -87.167 -108 -105.5s-156.334 -27.5 -299.001 -27.5zM477.003 82c157.333 0 250 11.667 278 35s42 98 42 224c0 126.667 -13.833 201.667 -41.5 225
s-120.5 35 -278.5 35s-250.833 -11.667 -278.5 -35s-41.5 -98.333 -41.5 -225c0 -125.333 14 -199.833 42 -223.5s120.667 -35.5 278 -35.5z" />
    <glyph glyph-name="idieresis" unicode="&#xef;" horiz-adv-x="961" 
d="M60 684h792v-684h-102v592h-588v-592h-102v684z" />
    <glyph glyph-name="idieresis" unicode="&#x43f;" horiz-adv-x="961" 
d="M60 684h792v-684h-102v592h-588v-592h-102v684z" />
    <glyph glyph-name="eth" unicode="&#xf0;" horiz-adv-x="902" 
d="M54 0v684h558c60.667 0 108.167 -18 142.5 -54s51.5 -90.667 51.5 -164s-17.5 -127.833 -52.5 -163.5s-83.5 -53.5 -145.5 -53.5h-452v-249h-102zM156 341l452.001 0.000976562c29.333 0 52.666 10 69.999 30s26 51.667 26 95s-8.5 75.166 -25.5 95.499
s-40.833 30.5 -71.5 30.5h-451v-251z" />
    <glyph glyph-name="eth" unicode="&#x440;" horiz-adv-x="902" 
d="M54 0v684h558c60.667 0 108.167 -18 142.5 -54s51.5 -90.667 51.5 -164s-17.5 -127.833 -52.5 -163.5s-83.5 -53.5 -145.5 -53.5h-452v-249h-102zM156 341l452.001 0.000976562c29.333 0 52.666 10 69.999 30s26 51.667 26 95s-8.5 75.166 -25.5 95.499
s-40.833 30.5 -71.5 30.5h-451v-251z" />
    <glyph glyph-name="ntilde" unicode="&#xf1;" horiz-adv-x="901" 
d="M148 341c0 -124.667 13.332 -199 39.999 -223s108.667 -36 246 -36c127.333 0 205 7 233 21c32.667 16.667 49 61.667 49 135h102c0 -108.667 -22.667 -177.167 -68 -205.5s-150.666 -42.5 -315.999 -42.5c-168.667 0 -275.334 20 -320.001 60s-67 137 -67 291
c0 155.333 22 253 66 293s151 60 321 60c166.667 0 272.334 -14 317.001 -42s67 -96.667 67 -206h-102c0 73.333 -15 117.5 -45 132.5s-109 22.5 -237 22.5c-138 0 -220.167 -11.833 -246.5 -35.5s-39.5 -98.5 -39.5 -224.5z" />
    <glyph glyph-name="ntilde" unicode="&#x441;" horiz-adv-x="901" 
d="M148 341c0 -124.667 13.332 -199 39.999 -223s108.667 -36 246 -36c127.333 0 205 7 233 21c32.667 16.667 49 61.667 49 135h102c0 -108.667 -22.667 -177.167 -68 -205.5s-150.666 -42.5 -315.999 -42.5c-168.667 0 -275.334 20 -320.001 60s-67 137 -67 291
c0 155.333 22 253 66 293s151 60 321 60c166.667 0 272.334 -14 317.001 -42s67 -96.667 67 -206h-102c0 73.333 -15 117.5 -45 132.5s-109 22.5 -237 22.5c-138 0 -220.167 -11.833 -246.5 -35.5s-39.5 -98.5 -39.5 -224.5z" />
    <glyph glyph-name="ograve" unicode="&#xf2;" horiz-adv-x="795" 
d="M26 684h715v-92h-306v-592h-102v592h-307v92z" />
    <glyph glyph-name="ograve" unicode="&#x442;" horiz-adv-x="795" 
d="M26 684h715v-92h-306v-592h-102v592h-307v92z" />
    <glyph glyph-name="oacute" unicode="&#xf3;" horiz-adv-x="1011" 
d="M407 92c28 0 51.5 4 70.5 12s34.167 22.333 45.5 43l-498 537h140l414 -455l259 455h116l-322 -563c-24 -41.333 -54 -71.833 -90 -91.5s-82.333 -29.5 -139 -29.5h-224v92h228z" />
    <glyph glyph-name="oacute" unicode="&#x443;" horiz-adv-x="1011" 
d="M407 92c28 0 51.5 4 70.5 12s34.167 22.333 45.5 43l-498 537h140l414 -455l259 455h116l-322 -563c-24 -41.333 -54 -71.833 -90 -91.5s-82.333 -29.5 -139 -29.5h-224v92h228z" />
    <glyph glyph-name="ocircumflex" unicode="&#xf4;" horiz-adv-x="1261" 
d="M555 606l-266 0.00195312c-80 0 -136 -14.333 -168 -43c-40.667 -36.667 -61 -107.334 -61 -212.001s20.333 -177.334 61 -218.001c34 -34 90 -51 168 -51h266v-82h102v82h265c78 0 134 17 168 51c40.667 40.667 61 113.334 61 218.001
c0 103.333 -20.333 173.666 -61 210.999c-32 29.333 -88 44 -168 44h-265v78h-102v-78zM555 514.002v-339h-266c-45.333 0 -77.833 13.167 -97.5 39.5s-29.5 71.833 -29.5 136.5c0 62.667 9.66699 105.5 29 128.5s52 34.5 98 34.5h266zM657 175.002v339h265
c46.667 0 79.667 -11.333 99 -34s29 -65.667 29 -129c0 -64.667 -9.83301 -110.167 -29.5 -136.5s-52.5 -39.5 -98.5 -39.5h-265z" />
    <glyph glyph-name="ocircumflex" unicode="&#x444;" horiz-adv-x="1261" 
d="M555 606l-266 0.00195312c-80 0 -136 -14.333 -168 -43c-40.667 -36.667 -61 -107.334 -61 -212.001s20.333 -177.334 61 -218.001c34 -34 90 -51 168 -51h266v-82h102v82h265c78 0 134 17 168 51c40.667 40.667 61 113.334 61 218.001
c0 103.333 -20.333 173.666 -61 210.999c-32 29.333 -88 44 -168 44h-265v78h-102v-78zM555 514.002v-339h-266c-45.333 0 -77.833 13.167 -97.5 39.5s-29.5 71.833 -29.5 136.5c0 62.667 9.66699 105.5 29 128.5s52 34.5 98 34.5h266zM657 175.002v339h265
c46.667 0 79.667 -11.333 99 -34s29 -65.667 29 -129c0 -64.667 -9.83301 -110.167 -29.5 -136.5s-52.5 -39.5 -98.5 -39.5h-265z" />
    <glyph glyph-name="otilde" unicode="&#xf5;" horiz-adv-x="945" 
d="M749 684h141l-351 -342l351 -342h-134l-293 290l-293 -290h-135l351 342l-351 342h142l286 -288z" />
    <glyph glyph-name="otilde" unicode="&#x445;" horiz-adv-x="945" 
d="M749 684h141l-351 -342l351 -342h-134l-293 290l-293 -290h-135l351 342l-351 342h142l286 -288z" />
    <glyph glyph-name="odieresis" unicode="&#xf6;" horiz-adv-x="977" 
d="M175 92h588v592h102v-592h50v-257h-94v165h-748v684h102v-592z" />
    <glyph glyph-name="odieresis" unicode="&#x446;" horiz-adv-x="977" 
d="M175 92h588v592h102v-592h50v-257h-94v165h-748v684h102v-592z" />
    <glyph glyph-name="divide" unicode="&#xf7;" 
d="M160 684l0.000976562 -239.001c0 -31.333 12.833 -57.5 38.5 -78.5s61.5 -31.5 107.5 -31.5h412v349h102v-684h-102v243h-412c-78.667 0 -140.334 19.667 -185.001 59c-42 36.667 -63 84.334 -63 143.001v239h102z" />
    <glyph glyph-name="divide" unicode="&#x447;" 
d="M160 684l0.000976562 -239.001c0 -31.333 12.833 -57.5 38.5 -78.5s61.5 -31.5 107.5 -31.5h412v349h102v-684h-102v243h-412c-78.667 0 -140.334 19.667 -185.001 59c-42 36.667 -63 84.334 -63 143.001v239h102z" />
    <glyph glyph-name="oslash" unicode="&#xf8;" horiz-adv-x="1288" 
d="M99 0v684h102v-592h380v592h102v-592h380v592h102v-684h-1066z" />
    <glyph glyph-name="oslash" unicode="&#x448;" horiz-adv-x="1288" 
d="M99 0v684h102v-592h380v592h102v-592h380v592h102v-684h-1066z" />
    <glyph glyph-name="ugrave" unicode="&#xf9;" horiz-adv-x="1305" 
d="M96 0v684h102v-592h380v592h102v-592h380v592h102v-592h50v-257h-95v165h-1021z" />
    <glyph glyph-name="ugrave" unicode="&#x449;" horiz-adv-x="1305" 
d="M96 0v684h102v-592h380v592h102v-592h380v592h102v-592h50v-257h-95v165h-1021z" />
    <glyph glyph-name="uacute" unicode="&#xfa;" horiz-adv-x="1024" 
d="M164 592h-125v92h227v-250h453c60.667 0 108 -17 142 -51c36.667 -36.667 55 -91.667 55 -165c0 -74 -16.833 -128.833 -50.5 -164.5s-81.5 -53.5 -143.5 -53.5h-558v592zM266 341v-249h451c30 0 53.667 10.167 71 30.5s26 52.166 26 95.499
c0 42.667 -8.5 73.834 -25.5 93.501s-40.5 29.5 -70.5 29.5h-452z" />
    <glyph glyph-name="uacute" unicode="&#x44a;" horiz-adv-x="1024" 
d="M164 592h-125v92h227v-250h453c60.667 0 108 -17 142 -51c36.667 -36.667 55 -91.667 55 -165c0 -74 -16.833 -128.833 -50.5 -164.5s-81.5 -53.5 -143.5 -53.5h-558v592zM266 341v-249h451c30 0 53.667 10.167 71 30.5s26 52.166 26 95.499
c0 42.667 -8.5 73.834 -25.5 93.501s-40.5 29.5 -70.5 29.5h-452z" />
    <glyph glyph-name="ucircumflex" unicode="&#xfb;" horiz-adv-x="1177" 
d="M1070 0h-102v684h102v-684zM80 684h100.999v-250h452c62.667 0 110.667 -17 144 -51c36 -36.667 54 -91.667 54 -165c0 -74 -17.167 -128.833 -51.5 -164.5s-83.166 -53.5 -146.499 -53.5h-553v684zM180.999 341v-249h452c30 0 53.5 10.167 70.5 30.5
s25.5 52.166 25.5 95.499c0 42.667 -8.5 73.834 -25.5 93.501s-40.5 29.5 -70.5 29.5h-452z" />
    <glyph glyph-name="ucircumflex" unicode="&#x44b;" horiz-adv-x="1177" 
d="M1070 0h-102v684h102v-684zM80 684h100.999v-250h452c62.667 0 110.667 -17 144 -51c36 -36.667 54 -91.667 54 -165c0 -74 -17.167 -128.833 -51.5 -164.5s-83.166 -53.5 -146.499 -53.5h-553v684zM180.999 341v-249h452c30 0 53.5 10.167 70.5 30.5
s25.5 52.166 25.5 95.499c0 42.667 -8.5 73.834 -25.5 93.501s-40.5 29.5 -70.5 29.5h-452z" />
    <glyph glyph-name="udieresis" unicode="&#xfc;" 
d="M69 684h102v-250h451c62 0 110 -17 144 -51c36.667 -36.667 55 -91.667 55 -165c0 -74 -16.833 -128.833 -50.5 -164.5s-81.5 -53.5 -143.5 -53.5h-558v684zM171 341v-249h451c30 0 53.667 10.167 71 30.5s26 52.166 26 95.499c0 42.667 -8.5 73.834 -25.5 93.501
s-40.5 29.5 -70.5 29.5h-452z" />
    <glyph glyph-name="udieresis" unicode="&#x44c;" 
d="M69 684h102v-250h451c62 0 110 -17 144 -51c36.667 -36.667 55 -91.667 55 -165c0 -74 -16.833 -128.833 -50.5 -164.5s-81.5 -53.5 -143.5 -53.5h-558v684zM171 341v-249h451c30 0 53.667 10.167 71 30.5s26 52.166 26 95.499c0 42.667 -8.5 73.834 -25.5 93.501
s-40.5 29.5 -70.5 29.5h-452z" />
    <glyph glyph-name="yacute" unicode="&#xfd;" 
d="M252 393h466.999c0 95.333 -15.667 153.833 -47 175.5s-110.666 32.5 -237.999 32.5c-129.333 0 -207.333 -6.66699 -234 -20c-32.667 -16 -49 -61 -49 -135h-102c0 108.667 22.667 177.167 68 205.5s151 42.5 317 42.5c169.333 0 277 -22 323 -66
c42.667 -40.667 64 -136.334 64 -287.001c0 -149.333 -21.333 -244.333 -64 -285c-46 -44 -153.667 -66 -323 -66c-166.667 0 -272.5 14 -317.5 42s-67.5 96.667 -67.5 206h102c0 -73.333 15.167 -117.666 45.5 -132.999s109.5 -23 237.5 -23c129.333 0 208 10 236 30
c32.667 23.333 49 86.333 49 189h-467v92z" />
    <glyph glyph-name="yacute" unicode="&#x44d;" 
d="M252 393h466.999c0 95.333 -15.667 153.833 -47 175.5s-110.666 32.5 -237.999 32.5c-129.333 0 -207.333 -6.66699 -234 -20c-32.667 -16 -49 -61 -49 -135h-102c0 108.667 22.667 177.167 68 205.5s151 42.5 317 42.5c169.333 0 277 -22 323 -66
c42.667 -40.667 64 -136.334 64 -287.001c0 -149.333 -21.333 -244.333 -64 -285c-46 -44 -153.667 -66 -323 -66c-166.667 0 -272.5 14 -317.5 42s-67.5 96.667 -67.5 206h102c0 -73.333 15.167 -117.666 45.5 -132.999s109.5 -23 237.5 -23c129.333 0 208 10 236 30
c32.667 23.333 49 86.333 49 189h-467v92z" />
    <glyph glyph-name="thorn" unicode="&#xfe;" horiz-adv-x="1247" 
d="M1132 341c0 -112 -4.99902 -184.668 -14.999 -218.001c-15.333 -52 -51.333 -87.167 -108 -105.5s-156.334 -27.5 -299.001 -27.5c-188.667 0 -306.167 17.333 -352.5 52s-69.5 119 -69.5 253h-126v-295h-102v684h102v-297h126c0 134 22.333 218 67 252
c48 36.667 166.333 55 355 55c142 0 241.167 -9.16699 297.5 -27.5s92.5 -53.5 108.5 -105.5c10.667 -35.333 16 -108.666 16 -219.999zM710.001 81.999c157.333 0 250 11.667 278 35s42 98 42 224c0 126.667 -13.833 201.667 -41.5 225s-120.5 35 -278.5 35
s-250.833 -11.667 -278.5 -35s-41.5 -98.333 -41.5 -225c0 -125.333 14 -199.833 42 -223.5s120.667 -35.5 278 -35.5z" />
    <glyph glyph-name="thorn" unicode="&#x44e;" horiz-adv-x="1247" 
d="M1132 341c0 -112 -4.99902 -184.668 -14.999 -218.001c-15.333 -52 -51.333 -87.167 -108 -105.5s-156.334 -27.5 -299.001 -27.5c-188.667 0 -306.167 17.333 -352.5 52s-69.5 119 -69.5 253h-126v-295h-102v684h102v-297h126c0 134 22.333 218 67 252
c48 36.667 166.333 55 355 55c142 0 241.167 -9.16699 297.5 -27.5s92.5 -53.5 108.5 -105.5c10.667 -35.333 16 -108.666 16 -219.999zM710.001 81.999c157.333 0 250 11.667 278 35s42 98 42 224c0 126.667 -13.833 201.667 -41.5 225s-120.5 35 -278.5 35
s-250.833 -11.667 -278.5 -35s-41.5 -98.333 -41.5 -225c0 -125.333 14 -199.833 42 -223.5s120.667 -35.5 278 -35.5z" />
    <glyph glyph-name="ydieresis" unicode="&#xff;" horiz-adv-x="963" 
d="M837 684l0.999023 -684h-102v247h-481c-30 0 -55.833 -7.5 -77.5 -22.5s-32.5 -33.833 -32.5 -56.5v-168h-102v168c0 33.333 9.66699 61 29 83c14.667 16.667 34.334 30 59.001 40c-28 12 -48.333 27.667 -61 47c-18 28 -27 70.667 -27 128c0 66 15.667 118.833 47 158.5
s76 59.5 134 59.5h613zM735.999 340v251.999h-471c-36.667 0 -63.667 -6.33301 -81 -19c-26 -19.333 -39 -55 -39 -107c0 -51.333 12.667 -86.666 38 -105.999c18 -13.333 45.333 -20 82 -20h471z" />
    <glyph glyph-name="ydieresis" unicode="&#x44f;" horiz-adv-x="963" 
d="M837 684l0.999023 -684h-102v247h-481c-30 0 -55.833 -7.5 -77.5 -22.5s-32.5 -33.833 -32.5 -56.5v-168h-102v168c0 33.333 9.66699 61 29 83c14.667 16.667 34.334 30 59.001 40c-28 12 -48.333 27.667 -61 47c-18 28 -27 70.667 -27 128c0 66 15.667 118.833 47 158.5
s76 59.5 134 59.5h613zM735.999 340v251.999h-471c-36.667 0 -63.667 -6.33301 -81 -19c-26 -19.333 -39 -55 -39 -107c0 -51.333 12.667 -86.666 38 -105.999c18 -13.333 45.333 -20 82 -20h471z" />
    <glyph glyph-name="endash" unicode="&#x2013;" horiz-adv-x="576" 
d="M52 318h445v-70h-445v70z" />
    <glyph glyph-name="emdash" unicode="&#x2014;" horiz-adv-x="956" 
d="M91 318h739v-70h-739v70z" />
    <glyph glyph-name="quoteleft" unicode="&#x2018;" horiz-adv-x="183" 
d="M132 605l-0.000976562 -74.999h-76v124c0 10.667 2.5 20.667 7.5 30s11.5 17.333 19.5 24h37c-7.33301 -6 -13.666 -13.833 -18.999 -23.5s-8 -19.834 -8 -30.501v-49h39z" />
    <glyph glyph-name="quoteright" unicode="&#x2019;" horiz-adv-x="193" 
d="M53 598v75h78v-126c0 -22 -9.66699 -39.333 -29 -52h-37c8.66699 6 15.667 13.5 21 22.5s8 18.833 8 29.5v51h-41z" />
    <glyph glyph-name="quotedblleft" unicode="&#x201c;" horiz-adv-x="348" 
d="M289 605v-75.001h-76v124c0 10.667 2.5 20.834 7.5 30.501s11.833 17.5 20.5 23.5h34c-6.66699 -6 -12.5 -14 -17.5 -24s-7.5 -20.333 -7.5 -31v-48h39zM132 604.999l-0.000976562 -74.999h-76v124c0 10.667 2.5 20.667 7.5 30s11.5 17.333 19.5 24h37
c-7.33301 -6 -13.666 -13.833 -18.999 -23.5s-8 -19.834 -8 -30.501v-49h39z" />
    <glyph glyph-name="quotedblright" unicode="&#x201d;" horiz-adv-x="358" 
d="M58 598l0.000976562 75.001h76v-126c0 -10 -2.5 -19.667 -7.5 -29s-11.5 -17 -19.5 -23h-37c7.33301 5.33301 13.666 12.666 18.999 21.999s8 19.333 8 30v51h-39zM213.001 598.001v75h78v-126c0 -22 -9.66699 -39.333 -29 -52h-37c19.333 12 29 29.333 29 52v51h-41z
" />
    <glyph glyph-name="bullet" unicode="&#x2022;" horiz-adv-x="478" 
d="M233 429c50 0 89.333 -15.999 118 -47.999c26 -28.667 39 -64.334 39 -107.001c0 -42 -13.333 -78 -40 -108c-29.333 -33.333 -68.333 -50 -117 -50c-52 0 -92.5 15.167 -121.5 45.5s-43.5 66.5 -43.5 108.5c0 41.333 14 77.333 42 108c31.333 34 72.333 51 123 51z" />
    <glyph glyph-name="trademark" unicode="&#x2122;" horiz-adv-x="400" 
d="M49 746h120v-13h-54v-157h-12v157h-54v13zM164 578l38 170l53 -144l55 144l36 -170h-13l-26 127l-52 -136l-51 136l-27 -127h-13z" />
    <glyph glyph-name=".null" horiz-adv-x="0" 
 />
    <glyph glyph-name="nonmarkingreturn" horiz-adv-x="494" 
 />
  </font>
</defs>
</svg>
